<svg id="skipper" xmlns="http://www.w3.org/2000/svg" viewBox="0 0 512 512"><defs><style>.cls-1{fill:#24190c;}.cls-2{fill:#141311;}.cls-3{fill:#3a2507;}.cls-4{fill:#0e1015;}.cls-5{fill:#826842;}.cls-6{fill:#0d0b04;}.cls-7{fill:#17191c;}.cls-8{fill:#a3a1a1;}.cls-9{fill:#9d9a9a;}.cls-10{fill:#816231;}.cls-11{fill:#312818;}.cls-12{fill:#c4bfc1;}.cls-13{fill:#282720;}.cls-14{fill:#b0a9a1;}.cls-15{fill:#504222;}.cls-16{fill:#6b6158;}.cls-17{fill:#725831;}.cls-18{fill:#3d3c3a;}.cls-19{fill:#403219;}.cls-20{fill:#0b1835;}.cls-21{fill:#573909;}.cls-22{fill:#a1978a;}.cls-23{fill:#41341f;}.cls-24{fill:#25211a;}.cls-25{fill:#8f826d;}.cls-26{fill:#905d11;}.cls-27{fill:#393430;}.cls-28{fill:#432d14;}.cls-29{fill:#9d9489;}.cls-30{fill:#514121;}.cls-31{fill:#86693d;}.cls-32{fill:#564123;}.cls-33{fill:#0f1213;}.cls-34{fill:#a67a23;}.cls-35{fill:#c4941e;}.cls-36{fill:#806b5a;}.cls-37{fill:#28241d;}.cls-38{fill:#4b3018;}.cls-39{fill:#8e8277;}.cls-40{fill:#493319;}.cls-41{fill:#b0a79d;}.cls-42{fill:#32280b;}.cls-43{fill:#50341b;}.cls-44{fill:#847468;}.cls-45{fill:#5c4f37;}.cls-46{fill:#a89e98;}.cls-47{fill:#5a4d34;}.cls-48{fill:#aea7a3;}.cls-49{fill:#574a2f;}.cls-50{fill:#b2a68f;}.cls-51{fill:#d8d7d7;}.cls-52{fill:#63533b;}.cls-53{fill:#bbb8b4;}.cls-54{fill:#b9b1a4;}.cls-55{fill:#cac6c7;}.cls-56{fill:#c8941e;}.cls-57{fill:#cecccb;}.cls-58{fill:#825609;}.cls-59{fill:#463c35;}.cls-60{fill:#625a53;}.cls-61{fill:#674106;}.cls-62{fill:#826b41;}.cls-63{fill:#8a6e3f;}.cls-64{fill:#030404;}.cls-65{fill:#332c25;}.cls-66{fill:#826941;}.cls-67{fill:#7f663f;}.cls-68{fill:#7c673e;}.cls-69{fill:#2b2824;}.cls-70{fill:#828062;}.cls-71{fill:#46320e;}.cls-72{fill:#c8b290;}.cls-73{fill:#9f9979;}.cls-74{fill:#c9b796;}.cls-75{fill:#d5c8ad;}.cls-76{fill:#846e3b;}.cls-77{fill:#826645;}.cls-78{fill:#b39b76;}.cls-79{fill:#0a1326;}.cls-80{fill:#162a55;}.cls-81{fill:#1e3153;}.cls-82{fill:#1d2e56;}.cls-83{fill:#152753;}.cls-84{fill:#384964;}.cls-85{fill:#1f2a3c;}.cls-86{fill:#0e1d3e;}.cls-87{fill:#1a1713;}.cls-88{fill:#ae9574;}.cls-89{fill:#bca87c;}.cls-90{fill:#836747;}.cls-91{fill:#775832;}.cls-92{fill:#4a412d;}.cls-93{fill:#32425e;}.cls-94{fill:#999881;}.cls-95{fill:#fbfbfb;}.cls-96{fill:#dfcbad;}.cls-97{fill:#a3a07d;}.cls-98{fill:#0c0d0e;}.cls-99{fill:#f4f3f4;}.cls-100{fill:#9a8764;}.cls-101{fill:#6c5f4e;}.cls-102{fill:#a79068;}.cls-103{fill:#080806;}.cls-104{fill:#191511;}.cls-105{fill:#393535;}.cls-106{fill:#b79878;}.cls-107{fill:#a2a081;}.cls-108{fill:#d3c39f;}.cls-109{fill:#72502f;}.cls-110{fill:#c3b290;}.cls-111{fill:#605838;}.cls-112{fill:#e2cbac;}.cls-113{fill:#181716;}.cls-114{fill:#d0b799;}.cls-115{fill:#988267;}.cls-116{fill:#9e9a7d;}.cls-117{fill:#ccbe9b;}.cls-118{fill:#aea1a0;}.cls-119{fill:#bfbab9;}.cls-120{fill:#e6e6e7;}.cls-121{fill:#0f0e0e;}.cls-122{fill:#202122;}.cls-123{fill:#b09a74;}.cls-124{fill:#2d261b;}.cls-125{fill:#b19c75;}.cls-126{fill:#a59066;}.cls-127{fill:#a38e66;}.cls-128{fill:#151414;}.cls-129{fill:#989573;}.cls-130{fill:#74592f;}.cls-131{fill:#987b46;}.cls-132{fill:#6a5227;}.cls-133{fill:#8c7542;}.cls-134{fill:#8e7649;}.cls-135{fill:#5f4b20;}.cls-136{fill:#a89165;}.cls-137{fill:#5a3f18;}.cls-138{fill:#927549;}.cls-139{fill:#2a2723;}.cls-140{fill:#0d1116;}.cls-141{fill:#dbc2a1;}.cls-142{fill:#342c1e;}.cls-143{fill:#a38962;}.cls-144{fill:#888766;}.cls-145{fill:#cec09c;}.cls-146{fill:#1b160c;}.cls-147{fill:#493a21;}.cls-148{fill:#866d48;}.cls-149{fill:#bea783;}.cls-150{fill:#82815f;}.cls-151{fill:#f36d21;}</style></defs><title>Artboard 1</title><path class="cls-1" d="M145.67,129.48l16.66-2.9c9.63-1.36,19.28-2.52,28.74-4.93a21.49,21.49,0,0,1,7.31-.6c10,3.11,20.1,6.32,27.33,14.54,2.79,3.17,6.85,3,9.95,5.08,2,2.21,2.56,5.19,3.94,7.73,1.84,3.4,7.82,5.07,10.53,2.71,2.5-2.18,6.16-4.87,1.41-8.54s-11.11-3.33-16.24-6.12c-7.15-4.6-15.46-6.8-22.68-11.36-8-5.07-8.3-5.05-4.66-14.29,1.5-4.1.46-8.38.87-12.55.19-2,0-4.6,2.33-5,2-.32,2.3,2.29,3.12,3.79,2.68,5.87,2.63,13.15,8.88,17.18,5.14,8.82,12.58,14.22,22.87,15.41,7.41,2.72,15.48,4.13,21.14,10.42,3.14,8.14.59,16.05-6.72,21-4.84,4-9.6,3.53-15.47,1.42-8.86-3.18-18.17-6.65-27.84-2.22a8.4,8.4,0,0,1-4.48.17c-7.81-2.22-15.67-4-23.89-3.22a8.34,8.34,0,0,1-4.66-.47c-11.26-6.11-23.77-5.3-35.89-6.63-14-1.68-27.61-5.48-41.36-8.48-2.11-1.15-4.66-.07-6.82-1.53s-2.16-2.42,0-3.61l4.86-.57c5.15-.29,10.14-3.9,15.47-.81,4.55,2.62,9.81,2.71,14.71,4.05,16.84,1.8,33.63,4,46.64,7-10.54-.76-22.43-8.94-35.9-12.24C142.08,133,142.36,131.07,145.67,129.48Z"/><path class="cls-2" d="M330.13,265.76c3.9,1,7.77,2,11.7,2.85,3,.63,3.93,2.76,4.14,5.35.37,4.54,2.81,6.24,7.16,5.71a24.31,24.31,0,0,1,2.69,0c11.1-.11,11.18-.14,14.11,10.78.87,3.25,2.37,5,5.93,5.05,3.35,0,6.68.81,10,.85,6.78.09,12.33,1.22,12.1,10-.08,3.24,2.63,4.24,5.47,4.75,6.37,1.14,12.73,2.4,19.09,3.61,1.1.88,3.53.5,3.14,2.78-.44,2.58-2.74,2.56-4.74,2.79-2.2.11-4.32-1-7.19-.6,1.09,6.14,4.66,10.47,8.69,14.52a2.25,2.25,0,0,0,2.4.85c1.3-.56,1.09-1.82.84-2.9-.7-3-2.54-5.8-1.55-9.11,3.87-4.25,5.3-.16,6.59,2.24,3.72,6.9,5.63,14.49,7.23,22.1.64,3,1.59,6,2,9.12-2.1,10.68-12.22,18.45-22.63,17.33a87.32,87.32,0,0,0-14.09-.33c-5.28.29-7.4-2-7.08-7.23.21-3.36.19-6.72.32-10.07.14-3.63,1.13-6.61,5.66-6.93-6.32-5.61-5.81-11.82.83-14.34,2.1-.1,3.42,2,5.66,2,.08-3.27-1-6.23-2.05-9.11-2.89-7.75-4.48-8.74-12.95-8.79-3.81,0-7.62.14-11.43-.12-2.27-.15-4.89-.41-5.4-3.06s2.28-2.84,3.94-3.75a23.07,23.07,0,0,1,2.51-1c.25-.22,0-.23-.63-.29-2.56-.23-6.42.88-7-2.19s3.51-3.32,5.77-4.5a2,2,0,0,0,1-.84c-6.33-2.44-13.86-.2-19.62-5.49-1.62-1.49-3.27,1.46-4.54,3-3.85,4.57-5.54,10.78-10.83,14.26-9.75.22-9.81.22-9.16-10.18.16-2.63-.44-4.73-2.47-6.4-1.78-5,.45-9.71,1.53-14.42,1-4.33-.19-6.88-4.38-8.3a78.54,78.54,0,0,1-7.66-2.55c-4.22-1.94-7.36-.73-9.79,3a28.14,28.14,0,0,0-6,7.79c-1,2.06-2.26,4-5,2a6.55,6.55,0,0,1-.41-6.4c3-6.18,4.73-12.86,8-18.92,2.37-2.06,4.07-3.68,6.26.81S326.06,264.61,330.13,265.76Z"/><path class="cls-3" d="M217.34,159.22c4.92-5.54,11.19-2.61,16.58-1.85,5.7.8,11.55,2.14,16.74,5.46,3.73,2.39,5.7-2.48,8.74-3.39,3.94,1.88,8.13.14,12.15.85a5.94,5.94,0,0,1,3.83,1.77c3.65,2.07,7.51-.6,11.83.64l-6.62,4.82c6.17,3.11,8.72,3.52,21.62,3.43-1.76,4.65-7.19,6.1-8.61,11l6.08,2.53L288,186.7c.7,3.91,4.72,4.5,7.24,7.56-3.46.67-6.13-.08-8.82-.55-1.46-.26-3.25-1.31-4.23.51-.78,1.46,0,3.08.91,4.37,2.47,3.32,5,6.59,8.19,10.75-5.3-.7-8.67-2.91-12-5.26-2.5-1.65-5.15-5.6-7.17.45-3.93,4-6.44.06-9.36-1.65a37.46,37.46,0,0,1-3.62-3.12c-8.23-4.67-15.13-2.77-22.86,6.32-3.11,3.82-5.86,7.85-7.11,12.71a17.22,17.22,0,0,1-1.88,4.29c-2.57,1.61-6,1.4-7.71,5-1.31,2.8-4.24,2.34-6.94.83-4-2.21-5.32-5.11-3.35-9.34,6.06-8.19,8.79-18.06,13.61-26.87A16.1,16.1,0,0,1,226,189.1c2.77-3.8,4.19-8.24,5.5-12.63,2.57-8.65-.52-13.45-9.46-15.36a24.2,24.2,0,0,1-3.25-.67A3.5,3.5,0,0,1,217.34,159.22Z"/><path class="cls-4" d="M232.15,492.56l-2.65-.16c-1.94-4.6.64-8.71,1.56-12.94.71-3.28,2-6.44,2.24-9.82.09-1.41,1.37-3.36-.75-4.1a6.25,6.25,0,0,0-5.22.51,3,3,0,0,0-1,4.18c5.82,7-2,10.6-3.94,15.42-1.39,3.38-5.18,2.41-7-1.62-2-4.48-.91-9.32-1.37-14,.93-21.52,5.47-42.45,10.1-63.36a7.64,7.64,0,0,1,2.62-4.55c4.3-1,5.18,1.64,4.88,4.95-.22,2.45-.65,4.87-.82,7.34-.32,4.86-.23,9.14,6.24,9.66,1.82.15,3.56,1.44,3.18,3.62s-2.21,2.64-4.14,2.74a13.85,13.85,0,0,0-3.35.23c-.93.28-1.64.84-1.55,1.89.06.71.69,1.06,1.31,1.36,3.39,1.63,7.77-.17,9.48-3.68,2.91-6,3.48-12.7,4-19,.6-6.79,3.18-13,3.79-19.63.94-2.9.41-4.87-3.11-5.07a32.94,32.94,0,0,1-9.86-2.15c-2.86-1.65-7-3.06-1.28-6.42,3.58-.86,7.05,0,10.44,1,4.5,1.31,7.24.34,7.94-4.75.45-3.27,1.6-6.43,2-9.73a20,20,0,0,1,.66-4.11c2.58-9.4,6.13-18.51,8.23-28,4-7,7.9-14,9.62-21.95.91-4.22,2-8.63-5-7.94a5.76,5.76,0,0,1-3.67-1.48c-2.2-1.67-3.6-4-5.17-6.22a40.23,40.23,0,0,1-4.09-7.66c-.82-2.08-1.76-4.31,1.1-5.74,4.65-.62,6,3.08,7.4,6.14,2.31,5,5.66,7,11,5,4.08-.31,9.21-3.32,10.36,4,0,2.64-1,5-1.63,7.53-2.57,6-1.93,12.69-4.15,18.76A198.12,198.12,0,0,0,268.75,363c-1.48,8.1-4.84,15.88-6.21,24-3,17.69-9,34.6-13,52-1.14,5-1.75,10.13-2.66,15.2-1,7.51-2.19,15-2.12,22.6C244.92,489.44,244,490.36,232.15,492.56Z"/><path class="cls-5" d="M227.84,402.13c-5.15,13.87-6.34,28.58-9,43-1.59,8.53-3.28,17.11-2.91,25.89-1.29,3.41-.64,7-.5,10.42.16,4.17,2,7,7,6.85,2,0,5-.54,5.41,2.93-14.07.57-28.14,1.27-42.22,1.62-3,.08-8.27.78-4.9-5.48,6.81,2.77,6.81,2.63,8.31-4.12,3.2-14.44,5-29.16,8.58-43.52.65-2.61,1-5.3,3-7.38a18.92,18.92,0,0,1,3.65-3c2-1.25,3.82-4,6.41-2.38,2.23,1.44,2,4.43,1.76,6.87-.56,6.44-2.13,12.75-2.38,19.24,0,.9,1.52.27.62.25,0-.05-.57-.29-.55-.66.44-8.34,2.62-16.36,4.54-24.42,4.22-17.71,5.69-35.93,10.09-53.6.48-1.94.31-4.05,1.58-5.78,3.1-1.21,3.11,1.49,3.46,3.08a13.62,13.62,0,0,0,3.08,6.27C233.36,386.64,232.77,394.84,227.84,402.13Z"/><path class="cls-6" d="M171.52,353.67l2.76,3.81c2.28,4.08,5.85,7.16,8.46,11,2.45,3.61,6.07,3,9.61,2.22a24.54,24.54,0,0,0,6.82-2.52c7.52-4.12,12-2.21,12.89,7.2.76,7.7-.08,15.87-8.07,20.68a3.54,3.54,0,0,1-1.95-.26c-3.7-3-7.77-5.39-11.25-8.91s-9.47-2.73-14.49-3.18a9.54,9.54,0,0,1-3.18-.8c-8.61-4.05-9.44-3.9-15.63,3a5.6,5.6,0,0,1-2.61,1.42,8.19,8.19,0,0,1-8.47-4.78c1-5.44-3.13-9.85-3.08-15.1a6,6,0,0,1,1.87-3.47c6.37-4.48,11.32-10.83,18.53-14.24C167.21,349.29,169.65,350.93,171.52,353.67Z"/><path class="cls-7" d="M284.93,297.17c-.88-8.65-6.6-1.27-9.6-2.9a2.41,2.41,0,0,1-.37-2.69c1.51-1.7,3.77-2.27,5.47-3.69,3.71-2.61,4-5.07,0-7.78a46.89,46.89,0,0,1-8.93-7.16c-2.05-2.28-3.86-4.91-1.27-7.72s5.36-.93,7.82.73,4.27,4.47,7.33,5.51c-3.5-3.75-7.86-6.48-11.59-9.92-2.53-2.33-5.21-4.92-1.16-8.31,5.7-.42,8.63,4.58,13.28,6.5-4-4.92-9.46-8.06-14.42-11.76-1.7-1.26-4-1.9-5.57-.28-1.92,2,.71,3.07,1.83,4.12,2,1.88,2.26,4.26,2.53,6.72-.05,2-.07,4-2.2,5-1.62-.18-1.66-1.63-2.17-2.71a15,15,0,0,1-.33,3.26c-.24,1.43,1,2.41,1.14,3.72-2.91,6.43-8.74,9.12-14.78,11.57-2.92.54-5.83.92-8.58-.71-1.35-1.55-.34-2.66.69-3.78a10.79,10.79,0,0,1,5-1.37c9-2.11,13.3-6,11.5-19.83-1.7-2.66-4-4.89-5.42-7.75-.61-1.61-1.82-2.92-2.39-4.53-1-2.8.13-3.61,2.81-2.7.78.43,1.69,1.37,2.31,1.21,8.79-2.26,16.78,2.12,25.14,2.8,9.63.78,19.28.79,28.53,4,3.25,1.12,7,2.58,6.42,6.67-1.05,7.91,3.91,9.83,9.86,11.24a12.49,12.49,0,0,1,2.38,1.13c-4.86-.78-11.48,3.54-13.6-5.29-.48-2-2.13,1.34-3.56,1.37-3.94-9.82-9.72-12.62-23-11.11-1,1.83.67,2.9,1.36,4.14,6.26,11.21,3.57,22.25-.79,33.11C289.23,291.25,289.52,295.79,284.93,297.17Z"/><path class="cls-8" d="M188.65,121.44c2.56-1.25,5.21-2.35,4.24-6.14-.26-1-.16-2.65.48-3.22,6.26-5.6,2.66-9.29-2.51-12.2-15-8.44-14.13-23.72-16.57-37.6-.41-2.32,1.2-3.81,2.75-5.1q12.39-10.36,24.88-20.6c2.12-1.75,4.72-2.25,6.9-.73,13.73,9.56,29,17.92,31.36,37.07-5.39,2.17-6.39-4.7-10.54-5.11C224.24,59.59,217.48,53,208.28,49c-3.53-1.53-6.22-1.51-9.3.83-4.48,3.4-8.61,7.22-13.07,10.64-1.45,1.11-2.9,2.57-2.69,4.46,1,9-.25,18.76,8,25.5,2.41,3.84,7.62,4.48,9.85,8.55,1.33,7.83-3.86,13.92-5.67,20.92C194.52,123.33,191.26,122.41,188.65,121.44Z"/><path class="cls-9" d="M230.67,67.83c4.85-1.45,5.12,5.66,9.51,5.08,5.28,15.1,17,24.73,28.71,34.61,7,5.9,13.91,12.28,18.47,20.17,3.82,6.61,3.83,14.55,1.61,22.08-1.6,5.42-7.67,3.85-11,6.64-2.86,1.44-5.39,3.44-8.26,4.9-3.48-.07-4.36-2.49-3.5-5,1.46-4.28.76-8.86,2.31-13.05.92-.52,1.85-.39,2.19.59,1.39,4,4.19,3.92,7.58,3.08,4-1,4.38-4.12,4.58-7.3s-.51-6.52-3-8.68c-9.59-8.44-19.44-16.59-27.83-26.29-.86-1-2.29-1.39-3.5-2-12.21-6.18-16.43-17.49-19-29.79A5.17,5.17,0,0,1,230.67,67.83Z"/><path class="cls-10" d="M217.34,159.22a4,4,0,0,0,1.21.17c1.78,4.54-2,4.7-4.55,5.39-3.74,1-7.53-.1-11.3-.45-5.07-.47-10.36-1.53-14.34,3.13-10.71-.92-20.62,2-30.33,6.19a20,20,0,0,0-9.6,8,214.25,214.25,0,0,0-14,27.53c-1.9,4.4-.48,6.29,4.19,6.29,6.95,0,13.89-.08,20.84,0,2.83.05,5.91-.56,8.2,1.94-1,3.61-4.16,2.88-6.67,3-7.18.47-14.36-.18-21.53-.56,5.53.39,11.24-.08,16,3.6a5.28,5.28,0,0,1,.78,4.89c-3.13,1.66-.53,7.1-5.14,7.8-.65-11.94-.65-12-12.92-12.9-5.35-.38-10.72-.36-16.08-.49-3.85-.09-5.51-1.46-3.29-5.32,8.58-14.93,15.84-30.61,25.58-44.87a9.17,9.17,0,0,1,3.26-3.22c7.67-3.57,15.33-7.22,23.72-8.89,2.28,1,4.74,1.89,7.05.63,11.35-6.14,23.07-4.66,34.88-2Z"/><path class="cls-11" d="M201.22,433.4a389.56,389.56,0,0,0-10.4,54.33c-.35,2.82-1.24,3.54-3.44,3.57-3,0-6.66,1-6.71-4,2-19.63,8.37-38.28,13-57.31.41-1.67,0-3.65,1.59-5,2.4-1.87,1.42-6.53,5.67-6.88,2.49,1.75,2.4,4.09,1.06,6.35C200.32,427.42,200.59,430.36,201.22,433.4Z"/><path class="cls-12" d="M442.63,380.47c-.59,2.06-2.34,1.82-3.85,1.83-22.17.06-44.3,2.3-66.53.29-11.95-1.08-24.05-.41-36.08-.53a1.52,1.52,0,0,1-.08-1.63c1.61-3.61-2.75-3.57-3.55-5.72-4.73-5.67-10.29-10.63-14.3-16.92,2.3-3.26,4.67-6.46,7-9.72,4.26.37,4.88,4.58,7.26,6.93,3.6,3.55,6.83,7.44,10.09,11.3,3.38,3.59,6.45,7.51,11,9.81,5.56,2,11.32,2.44,17.14,2.7,21,.92,41.94-.56,62.91,0C436.69,378.92,439.94,378.22,442.63,380.47Z"/><path class="cls-13" d="M147.16,382.06c2.28,2,4.44,4.3,7.91,4,.87,2.59-1.33,2.23-2.61,2.66-4.91,1.65-5.53,3.26-2.79,7.54,4.7,7.35,5.46,7.51,13.4,3,1.71-1,3.5-2.45,5.54-1,1.89,1.3,1.69,3.51,1.71,5.51a35.58,35.58,0,0,1-1.13,7.27c-.91,4.59.8,7.12,5.37,8.33,3.06.81,4.41.19,5.29-2.91s2.21-6.37,5.36-8.23c5-1.65,7.94,2.1,11.53,4.23,2.45,2.41,3,4.14-1.46,4.08a8.62,8.62,0,0,1-3.92-.48c-3.38.52-4.48,3-5.41,5.9-1.54,4.75-4.43,6.77-9.69,5C163,422.54,159.51,419.33,164,408a15.17,15.17,0,0,0,.5-2.77c-12.41,8.05-14.47,7.45-22.25-5.1-1.93-3.11-1.95-5.72-.32-8.66s3.12-5.86,2.77-9.36A1.57,1.57,0,0,1,147.16,382.06Z"/><path class="cls-14" d="M139.3,330.92c-1.2.54-2.43,1-3.61,1.63-1.53.77-2.65,1.94-1.78,3.73.74,1.52,2.15,1.2,3.47.67,1-.4,2.18-2.44,2.95,0a6.41,6.41,0,0,1-.29,3.9c-.56,1.5-1.62,1.95-2.91.36-.78-1-2-.83-3.08-.36-2.16.93-4.73,3-5.92-.83-1.07-3.45-4.95-7.16.1-10.63,4.23-2.5,8.22-9.75,7.6-14.34-.35-2.58.47-3.88,3-4.08,3.71-.29,8-3,10.4,2.4,1.16,2.62,1.14,5.72,3.24,8a2.43,2.43,0,0,0,2.74,1.21c-1.7,6.32-2.17,12.9-4.11,19.17a16.16,16.16,0,0,1-1.31,3.07c-1.11,2-2.63,4.47-5,3.37s-1.66-3.67-.36-5.81c2.82-4.63,0-8.62-2-12.45C141.59,328.17,139.81,328.83,139.3,330.92Z"/><path class="cls-15" d="M187.37,310.46a75.2,75.2,0,0,0,7.12,17.49c1.95,2.93.4,4.57-2.21,5.64-2.89,1.19-5.5,2.95-8.4,4.1a5.73,5.73,0,0,1-1.94.32c-1-.34-1.74-.87-1.33-2.11,1.24-3.67-.36-6.6-2.61-9.22-5.09-5.88-6.08-12.81-5.25-20.16.66-5.81,3.54-9.73,9.89-9.57a37.4,37.4,0,0,0,15.1-2.6c2-.8,3.92-1.49,5.09,1.08s-.11,4.3-2.44,5.32-5,2-7.48,3c-2.19,1.64-3.51-.51-5.16-1.19-2.66-1.09-5.31-1.88-7.88.18a13.07,13.07,0,0,0-1.52,12.68c1.51,3.73,4,6.68,7.46,9.85.82-3.47-.93-5.4-1.68-7.53a24.61,24.61,0,0,1-1.83-6.37c-.21-3,0-6.7,3.66-6.58C190.47,304.91,185.34,308.86,187.37,310.46Z"/><path class="cls-16" d="M232.15,492.56c11.07-.84,10.61-8.81,10.61-16.77a90,90,0,0,1,2.83-22.37c1.71,1.32,1.79,3.26,2,5.15.18,7.1-1.93,14-1.32,21.21.36,4.15,1.86,6.78,6.38,6.79,2.8-.37,5.43-1.41,8.45-.83,6.8,1.31,7.94.37,9.8-6.19.74-2.62.33-6.59,5.18-5.28,2.84,4.31-1.27,8.88.53,13.21,2.43,2.85,5.76,1.95,8.76,1.95,5.55,0,11.11.47,16.65-.37a8.82,8.82,0,0,1,2.22,0c5.24,1.08,10.61-.09,15.85,1,3.84,1.86,8.74-.71,12.18,2.85-4.27,1.87-8.87,1.14-13.17.9C290.12,492.17,261.13,492.85,232.15,492.56Z"/><path class="cls-17" d="M151.14,236.25c2-1.37,1.34-3.49,1.39-5.35.06-2,1-2.07,2.45-1.36,2.91,2,1.31,5.57,2.86,8,2.38,2.39,5.48,3.62,8.31,5.31,1.68,1,4.62,1.15,3.68,4.41-2.52,2-5.13.67-7.71.24-.94-.13-1.87-.36-2.78-.57-2.49-.44-3.56.74-2.77,3,1.55,4.43,1.3,9.39,4.06,13.43,3.06,2.87,7.39,2.49,10.88,4.24,3.92,2.22,7.88,4.4,9.71,8.9-.64,1.37-1.94,1.64-3.23,1.91a24.9,24.9,0,0,0-14.54-6.21c-5.84-.45-8.94-3.88-10.41-8.87-1.89-6.41-3.05-13-4.86-19.49C147.2,240.36,149.5,238.53,151.14,236.25Z"/><path class="cls-18" d="M442.63,380.47c-11,.14-22,.5-32.94.38-16.77-.19-33.59,1.58-50.32-1.09-3.06-.49-6.1-.72-8.44-3.05a3.21,3.21,0,0,1,4.29-2c5.29,1.9,10.89.84,16.24,1.92,20.51-.22,41,1.26,61.53.67,4.43-.13,7.22-2,5.94-6.54-1.37-4.89,1.18-9.62-.2-14.37-1.71-10.6-3.92-21-9.17-30.57-1.72-3.12-1.79-3.08-4.29-1.87-3.12-.49-5-2.17-5.34-5.43,1.53-.39,3.62.9,4.48-1.05.25-.57-1.19-1.88-1.85-2.85,5.67-.89,7.65,3.54,9,7.3,6.09,17.29,10.56,35,12.14,53.35C443.81,377,443,378.75,442.63,380.47Z"/><path class="cls-19" d="M199.75,369.88c-1.87.72-3.69,1.61-5.61,2.14-8.89,2.47-10.89,1.76-15.37-6.59-1.44-2.69-4.82-4.3-4.49-7.95,4.3,3.68,7.21,9.81,14.49,8.2,4-4.72,2.23-9.23-.86-13.35-2.13-2.83-2-4.42,1.11-6.3a65.86,65.86,0,0,0,9.11-6.86c1.48-.88,1.85-3.37,4.23-3l2.79,5.59c.78,2,2.32,3.87,1.85,6.28a4,4,0,0,1-2.39,1c-8.07,1.83-8.14,2-5.5,9.29a2.4,2.4,0,0,1-.3,1.92A4.69,4.69,0,0,0,196,365c1.77-1,.28-5.11,4-4.29C202.34,363.83,201.66,366.87,199.75,369.88Z"/><path class="cls-20" d="M227.8,491.2c-.26-.32-.47-.88-.78-.94-13-2.43-14.89-5.64-11.11-19.27.52,4.19-.8,8.55,1,12.62.59,1.32,1,3.38,3.1,2.7,1.23-.39,2.71-1.75,2.25-3-1.95-5.26,2.56-5,5.07-6.09.37-1.71-.52-2.42-1.38-3.14-3.18-2.68-2.24-6.36-1.39-9.34s4.11-.28,5.71-1c8.08-3.4,5.29,1.3,4.83,5.52-.87,8-4.6,15.19-5.61,23.08C228.49,492.64,228.09,492,227.8,491.2Z"/><path class="cls-21" d="M145.67,129.48c-.76,1.33-2.65,2.29.93,3.09,15.5,3.44,29.2,12.59,45.47,14.25-3,2.3-6.38,2.21-9.29,1.54a268.67,268.67,0,0,0-45.53-6.74c-.78,0-1.52-.79-2.27-1.21,3-3.06,7.21-.92,10.94-2.34-2.85-1.8-5.85-2.21-8.8-2.79-1.73-.34-3.87-.73-3.84-2.93,0-2.68,2.43-1.89,4.06-2,1.3-.12,2.66.25,3.89-.44Z"/><path class="cls-22" d="M152.47,321.3c-4.72.48-3.15-3.59-3.91-5.74S147,311.3,145,311.15c-2.6-.21-5,2.22-7.89,1.54-.72,3.37,2.66,5.42,2.7,9.09-1.66.58-6.87-1.86-4.3,4,.34.77-3.19,5.6-7.34,3.59.33-1.65,2.84-2.38,1.75-4.68-2.17-4.59,1.77-4.92,4.18-7.1,1.68-1.51-3.26-5.59-.73-9.18,1.54-2.18,2.95-2.55,4.88-.7,1.42,1.36,3.07,2.18,4.79.79,1.93-1.55,1.47-3.54.47-5.5-2.45-4.81-.6-9.13,1.66-13.34.66-1.23.48-3.57,2.77-3a3.53,3.53,0,0,1,2.17,2.32c.4,2.18-2.8.83-3,2.67,1.65,6.24-1.15,14.2,7,18,.73.33.37,1.6-.19,2.37.22,1.4-5.29,2.33-.09,4.44C155.92,317.21,152.14,319.34,152.47,321.3Z"/><path class="cls-23" d="M255.48,238.73c-1.71.33-3.09.81-1.21,2.73,1.22,1.24,2.32,2.53,2.12,4.44-3,.43-4.62-1.69-6.5-3.38-4.79-1.77-7-4.9-5.16-10.06,1.82-3.63,4.56-6.69,6.32-10.36,2.34-5.42,8.57-7.64,10.76-13.17,1.36-2.38,0-5.12,1-7.54,3.2-.33,4.34,6.13,8.52,2.58,2.76-1.16,1.47,2.23,2.89,2.57-5,2-11.21,3.11-8.06,11.07,1.06,2.68,2.06,5.4,1.85,8.17-3.23,1.1-5.25-7.5-8.41-1.3C257.39,228.75,247.86,231.55,255.48,238.73Z"/><path class="cls-24" d="M336.3,380.84a1,1,0,0,0-.13,1.22c-2.85,18.85-1.89,37.88-2.67,56.83,0,.89,0,1.79,0,2.68,0,13.73,0,13.73,12.18,17.33l-.8.84a9.88,9.88,0,0,1-4.48,1.12c-13.72.23-15.86-2.37-12.26-15.69,1.17-4.34,2.22-8.6,2-13.1q0-3,0-6c0-10-.43-19.94-.1-29.89a82.25,82.25,0,0,1,1.49-11.08c-1.45,2.59-2.93,5.07-4.2,7.67-1,2-1.89,4.35-5,2.93-.67-6.78,2.67-12.35,5.42-18.11a10.49,10.49,0,0,1,2.41-1.91C334.83,374.38,336.19,376.87,336.3,380.84Z"/><path class="cls-25" d="M199.59,340.11a44.4,44.4,0,0,1-4.08,3.4c-5,3.26-10.47,5.83-4.31,13.22a5.68,5.68,0,0,1-2.42,9c2.63-5.54.67-10.13-2.77-14.58-2.29-3-4.14-6.27-6.41-9.26-1.91-2.51-1.67-4.37,1-5.94l1.66,1.64c1.15,1.53,1.38,3.57,3.84,6.08-2.32-2.58-2.65-4.57-3.84-6.08,3-2.3,5.89-4.81,9.69-5.55,2.53-.5,2.27-2.34,2.52-4,2,.38,4.41.18,5.13,2.9C198.52,333.92,202.27,337,199.59,340.11Z"/><path class="cls-26" d="M188.65,121.44c3.53.64,6,.67,5.8-4.41-.18-5.4,5.58-9.3,4.84-15.19a27.27,27.27,0,0,1,.19-4.67c-1.33-2.74.72-4.43,1.95-6.39a11.15,11.15,0,0,1,2.33-2.18c2.79-2,5.79-3.08,8.43-.12,2.5,2.8,4,6.06,1,9.61L211,94.16c-1.89,6.1,1.29,12.35-1.7,18-3.42-3.65-.49-8.87-3.44-13.19-1.55,2.19-.57,4.36-.55,6.34,0,2.81-.38,5.77-2.62,7.36-3.9,2.77-3.21,6.41-2.91,10.14-9.84-.49-19.33,2-28.92,3.52-2.83.46-5.67,1.13-8.54.27C170.79,123.25,180,123.82,188.65,121.44Z"/><path class="cls-27" d="M218.63,359.05c1.9-11.34.91-22.85,2.14-34.24,1-9,.83-9,9.7-12.26.15-2.87-2.21-4.21-3.72-6.07.5-3.36,2.34-4.85,5.77-4.11.71.54-.14-.22.56.34,8.82,7.07,8.83,7.83.23,15.07-4.45,2.81-5.71,7.15-5.82,12.06-.15,6.67,0,13.35-.11,20-.06,2.83.41,5.86-2,8.13-3.54-.86-2.5-3.78-2.54-6-.13-7.23,0-14.47,0-20.73-.26,8.27.57,17.5-.67,26.72-.3,2.2-.38,4.54-3,5.43C217.42,362.09,217.67,360.6,218.63,359.05Z"/><path class="cls-28" d="M249.84,275.26l-5.59.3c-4.77,2.56-9.87,1.85-14.94,1.55-2.74-1.11-4.72-.88-5,2.68-.17,2.22-.34,4.47-1.69,6.4-7.08,1-14.09,3.63-21.55,1.54.57-3.08,2.85-2.92,4.62-3.5a10.83,10.83,0,0,1,2-.58c3.61-1,8.63.38,9.21-5.6.7-4.19,1.06-8.43,1.75-12.59.45-2.7.17-6.78,5.06-6.16a6.58,6.58,0,0,1,2.36,1.93c2.42,3.29,3,7.77,6.58,10.3,3.55,1.47,7.26.36,10.88.69C245.94,272.56,248.93,271.76,249.84,275.26Z"/><path class="cls-29" d="M139.3,330.92c-3.34-2.9,1.09-3.58,1.84-4.46,1.41-1.67,2.89.32,3.08,1.83.68,5.45,4.88,10.84.44,16.49-.38.49.08,1.65.21,3.12A16.66,16.66,0,0,0,151.68,333c-.51-4.74.73-7.5,3.53-10.44,5.27,2.52,2.84,7.73,3.67,11.63.72,3.35-2.31,1.12-3.79,1.47-2.25.53-2.48,3.4-2.81,5.53-.64,4.16-1.67,7.86-6.41,9.15-1.61.44-3.22,2.75-4.73,1.19s-1.3-4.33.21-6.19c3.21-4,3.36-8,1.15-12.44A3.3,3.3,0,0,0,139.3,330.92Z"/><path class="cls-30" d="M213.33,159.25c-9.36.86-19-3.5-28.15,1.33-2.12,1.11-4.51,1.72-6.65,2.82-3.57,1.84-5.89,1-7.13-2.83l8.59-3.8c-10.36-5.79-21.6-4-31.8-6.69,11.76-.23,23.4,0,34.64,4.41,2.94,1.16,6.58.72,9.9.7C199.89,155.16,206.8,156.17,213.33,159.25Z"/><path class="cls-31" d="M178.44,301.22c5.65-4,10-.57,14.47,2.5-2.13,2-5.33,3.15-5.55,6.74-2-1.23-.07-3.31-1.17-5.11-3.22,1.5-2.82,4.32-2.21,6.7.76,3,2.22,5.8,3.36,8.69.85,2.17,3,4.67,0,6.45-2.63,1.53-4.19-1.27-5.18-2.91-1.71-2.82-4.77-4.77-5.38-8.28A13.87,13.87,0,0,0,178.44,301.22Z"/><path class="cls-32" d="M207.9,284.86c-1.14,2.16-3.75.61-5.41,2.16,7,2,13.48-1.35,20.15-.83-14.1,6.35-33.23,3-44.63-7.74a3.2,3.2,0,0,1,2.93-1.76,2.84,2.84,0,0,1,3.14-.57C191.65,280.07,200.06,281.68,207.9,284.86Z"/><path class="cls-33" d="M229.32,277.11c4.69-3.28,10-1.07,14.94-1.55L243,278.1c-3.48,2-8.92,2.85-5,9a9.65,9.65,0,0,0-1.19,5.83,63.21,63.21,0,0,0-3.78,9l-.63.65c-2.45.49-3.94,2.33-5.62,3.92-2.69-1-1.79-3.28-.76-4.25C234,294.69,231.29,285.88,229.32,277.11Z"/><path class="cls-34" d="M141.22,129.86c-1.75,2.29-4.84.17-7.23,2.53,4.79,1.37,9.28,2.64,13.76,3.95,1.5.44,3.3.94,2.71,3-.46,1.61-2.2,1.19-3.45,1.19-4,0-8-.09-12-.14-5.08-1-10.58-.31-14.94-4,4.54-3.46,8.95.86,12.79-.06-4.64-2.08-4.67-2.12-3.47-6.28A42.15,42.15,0,0,1,141.22,129.86Z"/><path class="cls-35" d="M129.36,130.09c-.5,7.07,5.55,3.74,8.76,5.47-.77,2.54-2.16,3.28-4.9,2.73-4.35-.87-8.79-1.26-13.19-1.86-4.95-3.19-10.13.54-15.14-.54C112.93,133.44,120.45,128.82,129.36,130.09Z"/><path class="cls-36" d="M349.57,222.71c-2,2.94-4.91,3.64-8.26,3.13-2.89-.43-5.39-2.51-3.8-4.86,3.06-4.5-1.69-12.65,5.76-14.07,3.5-.67,7,3.23,7.87,7.65a2.54,2.54,0,0,1-2.47.84c-1.79.47-3.13-4.23-5.18-.43C343.28,219.33,348,219.76,349.57,222.71Z"/><path class="cls-37" d="M171.52,353.67c-2.49-1.62-5-3.3-8.19-2.71-4.46-.44-6.4,3.5-9.3,5.6-3.42,2.48-6.52,5.43-10,7.85-2.11.6-4.58,2.35-5.24-1.65,5.73-6.66,13.26-11,20.74-15.11C165.59,344.3,169.23,348.21,171.52,353.67Z"/><path class="cls-24" d="M332.26,492.91c-4.11-1.35-8.57.67-12.61-1.33,5.41-3.12,11.88-2.3,17.63-4.85,2.48-1.09,4.09-.83,4.44-4.06.22-2,.66-4.45,2.44-6.08a1.43,1.43,0,0,1,1.7.16c0,1.32.13,2.66,0,4C345,493.68,345,493.68,332.26,492.91Z"/><path class="cls-38" d="M330.53,182.41c-.37,4,4.53,7.89.14,11.91-.75,3-2.24,4-4.91,1.85-1.51-1.21-2.91-2.54-4.44-3.74-3.23-2.23-4.36-5.12-2.73-8.85h0c2.23-.8,2.3,1.75,3.65,2.3,1.71.54,3-.52,4.4-1.14C328.13,184.3,328.41,181.8,330.53,182.41Z"/><path class="cls-39" d="M350.89,168.87c-2.58-2.36-2.16-5.51.2-6.77,3.32-1.79,5.95-5.94,10.52-4.61,3.5,1,4.68,3.75,4.16,7.27-2.35,1.69-5.22,2.29-7.62,1.12C354.22,164,352.59,166.15,350.89,168.87Z"/><path class="cls-40" d="M350.89,168.87c.25-4-.76-9.24,6.32-4.55,2,1.36,5.66.36,8.55.44-1.43,2.52-1.39,6.14-5.16,6.92-2.33,1-3.19-1.89-5.14-2-1.53,1.66,2.67,5.1-1.79,5.84C350.17,174.4,351.38,171.28,350.89,168.87Z"/><path class="cls-41" d="M153.95,311.93c-6.49-4.33-8.61-10.62-8-18.08a7,7,0,0,1,1.13-2.25c.14,3,2.58,4.48,4.36,6.37s3.77,3.41,1.46,6.13c-1.69,2-1.73,3.13,1.18,4.15C155.88,308.87,155.44,310.74,153.95,311.93Z"/><path class="cls-42" d="M147.16,382.06l-2.49,0-5.7-9.32c-1.09-4.64.67-6.56,5.39-5.68C144.32,372.25,150.93,376.19,147.16,382.06Z"/><path class="cls-43" d="M349.57,222.71c-3.76.07-5.65-3-8-5.05-1.81-1.6-.46-2.6,1.36-3,1.58-1.58,3.3-1.16,5.06-.37l3.17.3C352.79,217.7,353.17,220.59,349.57,222.71Z"/><path class="cls-44" d="M318.59,183.59c-.07,3.43.67,6.44,4.14,8-1.2,2.52.93,3.28,2.3,4.55,1.1,1,3.59,1,2.92,3.5-3.79,2.45-6.27.6-9.31-2s-3.49-4.84-2-8C317.58,187.77,316.72,185.25,318.59,183.59Z"/><path class="cls-45" d="M191.35,416a32.73,32.73,0,0,0,4.36-.34c3.7-.78-.4-1.64,0-2.48,3.1-1.88,4.07-6.68,8.75-6.41,1.68,4.7-.33,8.33-3.36,11.67-2.35,1.84-2.72,5.41-5.78,6.63C195.87,421.2,198.31,416.55,191.35,416Z"/><path class="cls-46" d="M353.67,175.56c1.39-1.13,1-2.22,0-3.4-1.34-1.66-2.47-3.61-.09-5.1s3.35.92,4.57,2.41a20.94,20.94,0,0,0,2.44,2.22C359.34,174.86,358.31,178.44,353.67,175.56Z"/><path class="cls-47" d="M144.36,367.08c-3.22.54-4.91,2.53-5.4,5.68-4.18-3.25-5.61-6.55-.19-10,1.71,2.91,3.71.26,5.57.3a1.88,1.88,0,0,1,1.64,1.6Z"/><path class="cls-48" d="M327.94,199.7a71.42,71.42,0,0,1-7-4.62c-3.77-3.16-.12-2.93,1.74-3.44,3.06-.34,3.56,6.91,7.94,2.69C331.25,196.87,330.8,198.9,327.94,199.7Z"/><path class="cls-44" d="M330.53,182.41c-1.33,1-.53,3.32-2.54,3.81-3.19-3.75-4.87-.63-6.77,1.49l-2.63-4.14C321.91,178.37,326.61,177.91,330.53,182.41Z"/><path class="cls-49" d="M206.59,348.26l-1.44-6.47c3.85,4.25,5.41,9.76,8.07,14.67a3.48,3.48,0,0,1,.43,3.85C207.78,358.36,207.91,352.89,206.59,348.26Z"/><path class="cls-50" d="M213.31,360.47l-.08-4c1.66,1.16,2.71,3.58,5.4,2.6l-.08,4.06c.42,2.23.39,5.73-1.86,5.29C213.12,367.71,212.3,364.07,213.31,360.47Z"/><path class="cls-51" d="M271,160.89c-1.54-7.47,4.49-3.21,6.95-4.48-.49,2.06-2.84,3.26-2.6,5.65l-3.94-.14q-.57-.17-.56-.58T271,160.89Z"/><path class="cls-52" d="M274.18,206.55,271.3,204c0-1.67-.86-4.44,1.06-4.6,3.06-.27,5.64,1.67,7,4.71C276.84,203.27,273,199.57,274.18,206.55Z"/><path class="cls-49" d="M199.59,340.11c.43-2.31-.53-4.31-1.52-6.25s-.67-2.89,1.55-3c1.39,1.54,2.84,3.05,2.75,5.35C200.73,337,201.62,339.58,199.59,340.11Z"/><path class="cls-53" d="M100,136.46c-.51,5.38,5.47,2.17,6.79,5.13a12.46,12.46,0,0,1-7.6-.85c-1.23-.54-3.49-.42-2.91-2.6C96.75,136.54,98.37,136.1,100,136.46Z"/><path class="cls-24" d="M345.71,458.9c2.36,5.93,1,11.9.16,17.86l-.49-.33a20.53,20.53,0,0,1-.12-17.09Z"/><path class="cls-54" d="M136,290.34c.95,3.53-.67,5-3.05,7C132,293.55,133.58,292.11,136,290.34Z"/><path class="cls-55" d="M249.73,101.27c1,.5,2.28.76,3,1.54,8.84,10.15,19.17,18.68,29.25,27.51,3.55,3.11,4.07,13.29,1.17,16.5-2.68,3-7.09,2.63-10.6,2.68-4.15.06-1.53-4.28-2.54-6.44-1.15-1.17-2.7-1.72-4-2.62-5.8-5.08-13.47-6.24-20.11-9.57a56.9,56.9,0,0,1-15.31-9.9,6.9,6.9,0,0,0-1.43-5.61,4.48,4.48,0,0,1-.37-1.82c.38-2,1.75-2.54,3.54-2.56,1.43-.24,4,1.55,4.07,0,.23-6.69,4-5.1,8.18-4.5C247.94,107,247.69,102.77,249.73,101.27Z"/><path class="cls-56" d="M199.79,122.79c-3.08-3.47-5.38-6.58.54-9.9,3.37-1.89,4.19-5.67,3.1-9.42-.59-2-.88-3.83.23-5.74.67-1.15,1.18-2.66,2.69-2.57,1.81.1,1.36,1.92,1.77,3.09,1.6,4.54.73,9.27,1.19,13.89-2.83,4.83-2.79,7.56,3.19,11.08,7.64,4.49,16.69,6,23.46,12,3.63,5.13,9.59,4.4,14.69,5.82,4.68,5.23,4.23,8-1.89,11.56-2.13-1.19-.1-3.89-1.88-5.26-1.73,1,.22,4.56-2.91,4.41-2.21-.11-3.43-1.85-4.44-3.63-1.3-2.29-2.12-4.93-4.57-6.4-4.82-.65-8.3-2.78-11.84-6.6C217,128.5,208,126.19,199.79,122.79Z"/><path class="cls-57" d="M213.22,98.09a13.13,13.13,0,0,0,.2-2.64c-1-7.75-2.87-8.77-9.71-5.24-11.06-.57-16.17-5.94-14.94-15.71.19-1.54.18-3.39,1.84-4.06,1.83-.74,2.72.93,3.73,2.09a29.93,29.93,0,0,0,13.5,8.91c5.15,1.71,8.61,4.48,8.61,10.47,0,7.9,5.48,14.12,6.94,21.6a3.06,3.06,0,0,1-.6,1.87C215,112.16,215.85,104.16,213.22,98.09Z"/><path class="cls-58" d="M235,141.68c5.22.75,4.93,7.13,9.12,9,2.19-1.85-3-4.65.74-6a5.93,5.93,0,0,1,4.48.48c3.08,1.87-1.07,4.14-.12,6.83,3.92-3.2,4.24-6.38,1.62-10q.66-1.18,1.65-.26c2.74.43,4.33,2.6,3.35,4.67-1.43,3-2.8,7.06-7.09,7.24-5.27.22-10.37-.29-11.62-7.1C236.78,144.87,235.69,143.31,235,141.68Z"/><path class="cls-59" d="M230.92,120.12a67,67,0,0,1,14.9,10.76c-10.68-.7-18.81-5.21-23-15.5a1.3,1.3,0,0,0-.09-.82c2.09-.71,3.25.92,4.68,1.85C228.68,117.53,230.39,118.26,230.92,120.12Z"/><path class="cls-60" d="M265.93,140.45c2.24-.51,3.81,0,4,2.62-2.59,4.41-.67,9.6-2.54,14.25-1,2.47,1.45,3.3,3.6,3.58a1.41,1.41,0,0,1,.41,1c-4-1-8.89,2.5-12-2.49C266.05,155.62,268.6,148.21,265.93,140.45Z"/><path class="cls-61" d="M252.45,141.75l-1.65.26c-3.48-.86-7.28.5-10.56-1.41-2.08-1.21-4.59-2.24-4.28-5.41C241.24,137.93,248.13,136.61,252.45,141.75Z"/><path class="cls-62" d="M341.58,366.9c-6.25-5.44-10.88-12.32-16.42-18.39-4.33-1.78-6.53-6.35-10.79-8.22a2.37,2.37,0,0,1-.07-1.79c3.34-3.86,6.42-8,11.77-9.41,5.19-2.71,10.53-4.84,16.55-4.4,5.85-.29,11.52-1.64,17.43-2.85-5-1.26-11.44,1.43-13.92-5.59a2.8,2.8,0,0,1,1-1.64c3.78-5.83,7.46-11.72,11.38-17.46,2.19-3.21,4.9-5.55,7.18,0,1.08,2.6,3.16,2,5.07,2.23,5.43.77,10.86,1.59,17,2.49-3.09,4.54-8.47,3.3-11.7,7.18h12.28c-2.53,5-8.18,3.18-11.15,6.82,5.75,2.08,11.43,1.65,16.83,1,6.81-.8,11,1.49,13.47,7.72a50.75,50.75,0,0,1,3.86,16.24c-3.64-.56-4.8-3.88-7.48-4.94-3.52-1.87-5.14-.59-4.85,3.16.6,7.82-2,15.4-1.51,23.24.17,2.56.84,6.9-4.51,5.74a78.15,78.15,0,0,1-12.4-22.12c-1.87-5-1-5.94,4.57-5.67-1.61-4.48-11.54-8.07-15.3-5.51-2.6,1.77-1.74,4.32-1.45,6.73s1,5.15-1.36,6.86c-2.71,2-5-.13-7.37-1.34-4.26-2.19-8.6-8-12.48-6-3.21,1.65-.51,8.74-1.57,13.31C344.56,358.56,347,364,341.58,366.9Z"/><path class="cls-63" d="M284.93,297.17c4.09-8.46,7.37-17.32,8.3-26.61a22.9,22.9,0,0,0-6.08-18.39c-.74-.78-1.92-1.38-1.41-2.72s1.81-1,2.87-1.14c7.51-.75,14.71,1,21.64,3.48,5,1.83,1.87,6.65,2.71,10-1.84,5.92-3.7,11.82-6.85,17.23a8.49,8.49,0,0,0-.86,7.08,22.4,22.4,0,0,1,5.27,9.19c1.18,10.59,1.19,10.61-8.92,13.91-2.89.95-5.52,3-8.83,2.21-2.92-1.64-.84-2.92.45-4,2.28-1.86,5.16-2.71,7.71-4.12,1.4-.77,2.88-1.71,2.28-3.62s-2.3-2.2-3.88-1.89c-4.69.93-10.13-.1-13.3,5a1.83,1.83,0,0,1-2.83.72Z"/><path class="cls-64" d="M342.87,326.57c-6.41-1.09-11.43,3.43-17.35,4.31-6.44,3.1-9.38-1.39-12.41-5.7-.77-3-1.76-5.58-5.59-3.13-3.66-.95-6.83-3.31-10.68-3.7a4.78,4.78,0,0,1-2.2-1.83c-1.46-2.75-.09-4.07,2.41-4.92s5.24-.48,7.9-.4c7.07.21,10.37-2.81,11.12-9.9a6.64,6.64,0,0,1,.87-3.16c4.6-1.21,9.21-1,13.66-4.47,3.22-2.48,2,3.77,3.68,5.5.09.09.43,0,.63-.08a2.54,2.54,0,0,0,.56-.37c.23-.13.46-.25.68-.36,5.19-.26,4,3.55,3.92,6.4-.15,4.33-4.85,11.84,6,7.82a24.4,24.4,0,0,1,1.06,2.21,2.65,2.65,0,0,1-.12,1.13,2.4,2.4,0,0,0-.72,2.38c.5,2.36-4.43,4.1-.75,6.92C345.76,325.41,343.64,325.81,342.87,326.57Z"/><path class="cls-65" d="M392.85,367.21c4.87.73,4.07-3.06,3.92-5.52-.5-7.91,1.4-15.64,1.36-23.5,0-1.7-.42-3.87,2-4.46,1.83-.45,2.85.91,3.69,2.32-2.58,0-4.55.81-4.15,3.85.32,2.42-1.5,5.9,2.27,6.86,3.54.9,3.22,3.08,2.73,6.09-4.73-3.64-6.52-2.16-6.42,3.29.06,3.77.3,7.53-.57,11.36-.71,3.15,1.24,5.11,4.77,4.36,6-1.28,11.93-.33,17.89.58,5,.76,9.48.3,10.85-6a6.64,6.64,0,0,1,4.18-5c2.3-.88,3.79-2.37,3.37-5.08,2.1,5.91,2,12.16,2.62,18.28.36,3.49-1.92,4.75-5.1,4.62-15-.62-30,.92-45-.84-4.1-.48-8.7-1-13.09.47-2.17.72-4.88,1.22-6.93-.95-.71-3.73-5.36-3.06-7.39-7.38C373.87,369.8,383.2,367.54,392.85,367.21Z"/><path class="cls-66" d="M314.56,275.4c1.8-5.45,5-6.4,10.38-4.32,16.13,6.23,16.2,6,11.82,23.31a39.49,39.49,0,0,0-.6,4l-.1-.06c-.73.79-.32,2.46-1.64,2.66-1.68.25-1.45-1.25-1.58-2.27-.31-2.37.64-4.94-1.15-7.11-5.69,7.79-14.26,8.08-20.93.72-2.43-2.68-2.06-5.8-1.05-8.87S312.82,278,314.56,275.4Z"/><path class="cls-67" d="M341.57,303.17c.56-4.57,1-8.54,1.55-12.5s2.32-6.67,7-6a16,16,0,0,0,2.67,0c2.89-.09,6.69-3.12,8.42.42,1.5,3.08-2.6,5.26-4.35,7.64a159.57,159.57,0,0,1-10.47,12.11c-1,1.1-2,2.94-3.68,2.41C340.29,306.44,342,304.09,341.57,303.17Z"/><path class="cls-68" d="M419.92,318.55a13.22,13.22,0,0,1,5.34,5.43c-.47,3.55,2.57,6.18,2.54,9.61,0,1.56.25,3.33-1.44,4.17-1.38.69-2.63-.32-3.64-1.1-5.5-4.25-8.6-10.22-11.44-16.35-1-2.15.17-3,2.07-2.91A62.13,62.13,0,0,1,419.92,318.55Z"/><path class="cls-69" d="M314.56,275.4a35.27,35.27,0,0,1-1.21,3.77c-4.72,10.61-3.47,13.68,7.65,17.47,3.59,1.23,6.68.11,8.1-3.72.75-2,.65-4.48,4.42-6.16,0,4-.11,7.6,0,11.15.16,3.92,1.62.51,2.5.38.2,2.09.25,4.43-2.3,4.8-1.76.26-1.57-1.76-1.61-3a37.33,37.33,0,0,0-.46-6.2c-3.57,6.48-8.77,6.3-14.43,4.47-3.91,1.19-5.89-1.76-8.26-3.86a17.56,17.56,0,0,1-3.73-8.33C309.52,283.56,309.44,277.23,314.56,275.4Z"/><path class="cls-70" d="M207.9,284.86c-10.07.84-18.09-5.06-27-8.17l-9.47-8.05c1.53-2.25,1.2-6.23,5.07-6.3,4.15-.08,6.3,2.81,7.81,6.31a13.62,13.62,0,0,0,9.34,8c2.14.59,4.4,1.3,6-1.26-1.14-1.7-2.44-.07-3.64-.21-3.93-.46-4.46-2.4-2.56-5.49a31.08,31.08,0,0,1,2.22-2.51c2.57-3.34,4.67-6.63-1.47-8.53a2.32,2.32,0,0,1-1.6-3.16c2.82-1,1.2-3.94,2.46-5.62,1.42-1.54,3-2.88,4.53-4.37,4.14.44,3.06,4.24,4.2,6.6.39.8.45,1.47.05.66.76-.36.31-1.14.58-1.71a58.71,58.71,0,0,0-3.71-28.4,32.52,32.52,0,0,1-1.56-4.43c-.41-1.77-.85-3.66.84-5s3.43-.25,4.87.82a17.3,17.3,0,0,1,5.5,5.8c-2,4.68,1.06,6.95,4.57,8.3,4.16,1.6,4.7-2.22,5.44-4.78,1.51-5.25,4.49,1.44,6.23-.92,2.4,2.82.13,5-1.13,7.18-2.13,3.62-2.75,7.42-2.51,12.17,3.32-1.14,6.79-4.22,9.16.58,5.13,6.14,9.08,5.85,15.81-1.14,3.7,4.95,7.41,9.89,13.9,11.47,2.95,10.71-.46,20-12,22.51-2-1.73-4.63-.58-6.86-1.3-1.56-2.5-3.83-4.31-6-6.26-1.85-1.69-3.69-3.85-2.49-6.4,1.4-3,4.16-1.62,6.5-1.05,1,.24,1.85,1,3.32.81-3.05-3.86-9.2-3.53-11-8.94-.37-1.1-3.74,1.13-6.17.86-3.81-.43-1.54,2.92-1.91,4.59-.24,1.09-.23,2.2-1.16,3-2.77-1.66-2.92.52-3.18,2.26-.81,5.49-1.53,11-2.29,16.49-2.23,4.44-7.16,3.65-10.71,5.53Z"/><path class="cls-71" d="M187.7,167.33c-.33-3.68,1.42-5.37,5-5.3a93.55,93.55,0,0,1,13.9.9c4.16.7,9.45,2.58,11.9-3.54,13.09,0,18.48,6.94,14,19.13-1.48,4-1.52,9-5.71,11.84-1.53-1-1.4-3.3-3.48-4.39-2.14,1.05,1.15,4.51-1.94,5.2-2.1.47-3.95-.24-5.88-.71-.6-.15-1.18-.35-1.76-.55-3.06-.86-6-1.78-7.19-5.31-.91-2.61-3.69-3.16-5.9-4.08-4.93-2.06-8.94-5-11.06-10.09A5.37,5.37,0,0,1,187.7,167.33Z"/><path class="cls-72" d="M210.38,219.88c-4.48,0-5.24-6-10.75-6,4.34,12.69,9.74,25,5.69,38.49-3.55-4.62-3.42-10.5-5.34-15.67-1.24-8.84-5.65-16.54-8.86-24.68,2.52-6.68,1.08-12.79-2.67-18.57-.73-1.13-1.56-2.21-2.2-3.39-1.34-2.48-4.17-5.64-1-7.7,3.49-2.26,5.47,1.19,6.84,4.17.9,1-2.75,1.13-.32,2.78,3.68,2.51,6.49,6,9.06,9.71a20.43,20.43,0,0,0,2.58,2.72c.36.29.9,1.09,1.28.21.2-.47-.4-1.13-.72-1.68-1.3-4.1-6.54-5.29-7.24-9.81a7.75,7.75,0,0,1,3.15-3.36c1.64-.59,3.06,0,4.44.79,3,3.61,6.74,1.57,10.24,1.29h0c2.71,2.28,7.14.31,9.36,3.79-.3,1-1.18,2.53-.79,3,3,3.67,1.32,4.91-2.43,5.51a3.17,3.17,0,0,0-2.73,3.32C219,211.66,214,215.41,210.38,219.88Z"/><path class="cls-73" d="M230.85,243c-1.18-1.91-2.33-3.62-4.4-.74-1,1.4-2.22,3.7-4.08,2.6-1.64-1-1.47-3.39-1.35-5.52a21.37,21.37,0,0,1,4.25-12.48c.88-1.13.93-2.91,1.35-4.39l1.35-4a4.06,4.06,0,0,1,1.28,1.47c1.18,1.75-.52,5.87,3.43,5.19,3.41-.59,2.84-4,3-6.6,3.61-4.48,3.62.72,5.6,1.68,1.45-1.39,2.15-4.36,5.12-4.82l.65-.08c7.88-1,7.88-1,5,6.35a1.06,1.06,0,0,0,.4,1.15c-1.34,3.82-4.08,6.65-6.67,9.59-1.31,1.56-.78,3.43-.75,5.16.14,8.32-4.53,11.13-12.14,7.21A10.13,10.13,0,0,1,230.85,243Z"/><path class="cls-74" d="M236.22,218.66c2.94,3.64,1.21,6.12-2.07,8.16-3.59,2.23-6,2-6-3,0-1.79-.12-3.58-.18-5.36.37-5.39,3.8-9.11,7-12.93,3.7-3.18,6.93-7.12,12.24-7.78,2.46,2,6.78.67,8.2,4.55-4.24,3-10.46,2.37-13.46,7.54C240.85,213.28,235.25,213.82,236.22,218.66Z"/><path class="cls-75" d="M255.13,202.56c-2-2.77-6.9,0-8.1-4.24a14.15,14.15,0,0,1,13.33.69l2.42,2.38c1,2.56,2.3,5.1.58,7.86-2.13,3.32-5,2.09-7.88,1.38C249.91,208.19,252.54,205.37,255.13,202.56Z"/><path class="cls-76" d="M223.92,192.93c-2.76-2.16-7.09-.44-9.36-3.79l6.75.88c1.65-2.14-4.3-3.61-.8-5.66a5.93,5.93,0,0,1,4.49-.42c3.19,1.18,1.32,4.22,1.84,6.42Z"/><path class="cls-23" d="M260.36,199c-4.37-1.57-8.88-.47-13.33-.69-5.23.34-7.47,5.7-12,7.18C242,195.26,252.28,192.62,260.36,199Z"/><path class="cls-77" d="M245.82,459.24q-.11-2.91-.22-5.82a182.27,182.27,0,0,1,9-39c3.71-10.4,4.14-21.84,7.26-32.59s6.23-21.54,8.22-32.52c1.72-9.49,5.48-18,9.23-26.71,2.77,2.87,1.08,5.93.11,8.75-2.75,8-5.35,16.1-6.23,24.59-.17,1.66-1.43,3.82.46,4.91,1.69,1,3.45-.54,4.83-1.54,5.21-3.81,11.21-6.5,15.73-11.28,1.36-1.44,2.86-2.88,5.14-2.75,2.62,3.44-.57,5.18-2.24,7.2-6.06,7.36-12.69,14.25-18.22,22.05-2.5,2.84-3.86,6.38-5.89,9.52-1.4,3-.9,6.19-.4,9.28,1.57,9.75,3.6,19.4,6,29,2.73,10.77,2.25,22,.35,32.73-1.11,6.25-.18,13-3.61,18.85-2.91,1.22-2.46,3.82-2.76,6.26-.88,7.26-4.68,9.9-11.42,7.34-3.12-1.19-5.11.26-7.53,1.16a7.2,7.2,0,0,1-1.72-5c.14-15.42-1-30.87.91-45.83-1.76,4.53-2.16,9.82-3.34,14.94C249,455.22,249.29,458.39,245.82,459.24Z"/><path class="cls-78" d="M299.72,345.66a122,122,0,0,1-19.16,14.45,47.23,47.23,0,0,1-6,3c-3.53,1.51-4.57,1-3.85-3.39,1.6-9.77,3.52-19.39,7-28.68,1-2.67,2.29-5.44,1.55-8.5,1.56-6.29.83-13,3.87-19,3.18-6.48,9.4-6.84,15.4-7.69,3.12-.44,6.13-.07,7.27,3.18,1.29,3.68-1.61,4.91-4.44,6.12-3.43,1.46-7.1,2.56-9.84,5.31a23.18,23.18,0,0,0,3.85,5.94l1.52.85c11.7,3.11,12.49,5.07,8.14,20.14C303.6,340.34,304.49,344.86,299.72,345.66Z"/><path class="cls-79" d="M227.84,402.13c.43-8.24,4.69-15.79,4.35-24.16-2.15-3.54-.05-6.86.69-10.17,1.11-4.94,2.32-9.86,3.51-14.79,2.72-7.12,1.86-14.56,2.07-21.91.08-3-.81-6.39,2.27-8.65,4.11,1.88,2.24,5.69,2.77,8.71.59,3.31-1.37,7.23,2.35,9.78a16.52,16.52,0,0,0,5.2,4c2.11.88,4.18,2,3.42,4.85-.65,2.4-2.82,2.47-4.84,2.61-1.07.08-2.22-.27-3.4.85,2.58,4.49,9.58,2.06,11.62,7.2l-.1,4.15c-4.64,3.61-10.11-1.55-14.78,1.33a1,1,0,0,0,.38,1.29c2.1,1.47,6.41,1.16,6.14,4.29-.33,3.81-4.49,2.62-7.12,2.94-3.17.38-4.27,3-6.09,4.85-2.58,1.47-2.58,1.47,1.33,4.05-.2,4.27,3.12,3.44,5.55,3.74,3.29.41,6.78.29,8,4.42A21.24,21.24,0,0,1,249.43,402c-2.1,5.36-1.46,11.07-2.57,16.55-1.06,5.22-2.77,10.22-4.2,15.25-1.21,4.26-5.79,1.71-8.83,2.13-1.79.25-4.21.9-5.31-1.57-.7-1.57,0-3,.76-4.45,1.25-2.27,3.16-2.17,5.21-1.45s4.52,1.57,4.74-1.31c.16-2.11-2.65-2.13-4.33-1.85-5.38.88-6.76-3.42-6-6.42,1-4-1.83-8.28,1.44-12.15C231.86,404.94,229.82,403.09,227.84,402.13Z"/><path class="cls-80" d="M257.86,360.47c-3.77-1.23-7.56-2.41-11.31-3.73-2.29-.8-4-2.35-3.33-5,.8-3.15,3-1.44,4.83-1.13s4.47,1.34,5.21-1.15c.88-3-2.42-2.65-4-3.24-2.37-.89-3.92-1.94-3.61-4.69.92-4.32.92-4.32,7.86-3.5-2.79-1.76-9.47,1.5-8.37-4.69s7-3.61,10.89-3.47c-.86-.45-2.2-.37-3.48-.63-3.16-.65-5.63-2.18-5.18-5.85.42-3.37,3.09-3.6,5.66-3,2.74.64,3.51-1.27,4.63-2.92,1.9-2.14,4.12-3.51,6.95-2s3,4.14,3,6.85c0,3.33-.9,6.5-1.75,9.68C265.45,342.13,261.19,351.17,257.86,360.47Z"/><path class="cls-81" d="M252.38,278c4.89-3.11,10-5.9,13.61-10.7-.19-1.54-.06-3,1.37-4,1.76-1.53,1.09-3.65,1.32-5.54,1.5-1.18-.62-6,4.06-4-2.5,3.58.26,5.59,2.6,7.08,3.78,2.42,6.55,6.19,10.89,7.84,2.38.91,2.93,2.68,1.48,4.84-2.09,3.11-3.35.34-4.66-.81-2.2-1.92-4.09-4.23-6.41-6-1.62-1.22-3.72-3.35-5.79-.66-1.59,2.06-.28,3.91,1.33,5.27,3.24,2.75,6.59,5.38,10,8,1.5,1.16,4.34,1.32,3.73,4s-1.45,5.37-5,5.4c-5-2.52-6.89-8.7-13-10.8,1.24,5.66,5.82,8.85,7.5,13.59q0,1.33-.05,2.66c-5.38,2.67-8.57.59-11-4.49-1.45-3-1.88-7.24-6.49-7.71C256.18,280.46,253.81,279.87,252.38,278Z"/><path class="cls-82" d="M265.9,332c-2.17-2.73-.12-5.44,0-8.17.07-2.52,1-5.5-1.74-7.26s-4.26,1.33-6.39,2.08c-3.73,2.42-7.15,1.95-8.53-2.33s3.4-4.22,6-5.78c-2.48-2.59-7-3.91-4.22-8.56,4.89-1.48,9.78-2.92,15-2.27,1.26.4,2.64,1.36,3.77,1.12,8.3-1.72,8.22,3.68,6.85,8.72C274.37,317.6,272.42,325.95,265.9,332Z"/><path class="cls-83" d="M236.29,379.32c-.82-10.74,8.19-4.81,12.36-7.33-1-3.36-4.19-1.43-6.14-2.45-1.53-.8-3.63-1.16-3.23-3.57.35-2.15,2-2.59,4-2.84,5-.65,9.62,1.75,14.53,1.49-1.27,5.7-.47,13.22-5,16.43S242.1,378.43,236.29,379.32Z"/><path class="cls-84" d="M252.38,278c2.69.17,5.94-.4,5.42,4.06-1.72,5.12,3.09,8,4.15,12.21,1,1.45.55,2.49-.88,3.28-5.82-.07-6.05-6.12-9.43-8.8-2.08-1.93-4-1.63-5.49.63-1.12,1.7-2.07,3.43-4.52,3.13a5.83,5.83,0,0,1-4.13-4.94c-1.4-1.94-4.58-2.63-3-6.44,1.9-4.73,5.71-2.09,8.54-3Z"/><path class="cls-79" d="M231.88,449.74c-1.62-1.35-5.84,2.06-5.61-3,.19-4.16,1.63-7.45,6.95-6.73,3.39.46,7.18.27,7,5.15C240,451,235.34,449.09,231.88,449.74Z"/><path class="cls-85" d="M241.67,291.58c1.93-.12,2-1.66,2.84-3,2-3.34,4.73-5.29,8.06-1.17-.38,2.09-6.36,1.81-2.45,5.69,2.84,2.82,4.49,8.83,10.34,4.09,1.24-.6,1.43-1.72,1.49-2.92l4,5.44c-4.57,2.73-9.59,3-14.72,2.72C248.18,298.69,242.15,297.58,241.67,291.58Z"/><path class="cls-86" d="M251.12,391.54c-3.22-3.23-7.33-2.79-11.35-2.75-1.88,0-3.69-.28-4.44-2.29s.44-2.87,2.28-3.13c3.23.46,6.45,1.26,9.68,1.31C252.89,384.77,253.87,387,251.12,391.54Z"/><path class="cls-87" d="M213.31,360.47c1.42,2.19,1.06,5.17,3.16,7.1,1.89-1,.74-3.3,2.09-4.45,4.1-8.41,2.48-17.46,3-26.28.18-3-1-6.3,2.47-9.4,0,8.24-.07,15.78,0,23.31,0,2.38-.81,5,1.32,7,3.1,3.2,4.09,6.72,1.63,10.76-3,21.51-6.88,42.86-11.46,64.08C214,440,212,447.34,209.88,456c-2-10.35,1.56-19.35.46-28.92l-9.12,6.28c-3.7-2-3.24-4.86-1.51-7.76,1.37-2.31,2.62-4.48,1.38-7.22,0-4.24,3.5-7.64,2.85-12-2.3-3.67,1.86-7.41-.12-11.09,5.27-5,7.09-11.56,7-18.34a15.39,15.39,0,0,0-4.3-9.73c-2.19-2.17-4.37,1.86-6.77,2.64-.43-3.15,1.29-6.59-1.25-9.46h0c-.13-.64-.22-1.3-.4-1.93-.82-2.78-6.69-4.63-3.79-7.1s7.27-5.94,12.29-3.13Z"/><path class="cls-88" d="M227,368.53l-1.63-10.76c.09-9.84.12-19.68.28-29.52.09-5.63,1.39-10.61,7.68-12.48,7.57-2,8.27-.86,6.82,6.82-1.78,9.43-.79,19.13-1.88,28.67a6.3,6.3,0,0,1-.61,2.57c-.86,8.27-3.37,16.16-5.48,24.14-2.8.27-4-1-4-3.81C228.22,372.24,228.66,370.14,227,368.53Z"/><path class="cls-89" d="M185.17,409.28c-1.21,2.38-2.78,4.66-3.54,7.18-1.17,3.87-1.95,6.71-7.35,4.74-4.9-1.78-8.59-3-7.08-9.51.93-4,3.76-9.71.72-12s-6.54,3.11-9.89,5.07a5,5,0,0,1-2.35,1c-1.63-.06-10.71-12.07-10-13.44,1.24-2.29.19-7.93,6-4.8,1.2.64,2.62-.06,3.35-1.45l1.6-1.19c3-2.12,5.68-4.77,9.69-5.34,2.42-.34,3.91-.29,4,2.52a6.34,6.34,0,0,1-2.78,1.76c-2,.86-3.58,2.11-2.71,4.57s2.86,3.78,5.24,3c3.49-1.08,5.84,0,8.32,2.39,3.17,3,7.93-.47,11.34,2.31a12.32,12.32,0,0,1,1,3.18C192.83,407.32,192.85,407.31,185.17,409.28Z"/><path class="cls-90" d="M185.17,409.28c4.3-1.75,7.36-3.86,3.79-9.09-.72-1,0-3.07,0-4.64-1-1.51-.65-2.5,1.09-3,2.44,1.83,1.72,4.33,1.46,6.55,1.61-3,3.61-5.64,7.6-5.8,1.4.22,2.31,1.24,3.38,2a1.84,1.84,0,0,0,1.29,0c6.46,3.63-.54,7.4.12,11.09-1.76,3.45-3.91,6.44-8.24,6.77C191.9,412.66,189.67,407.89,185.17,409.28Z"/><path class="cls-87" d="M202.53,395.33a2.35,2.35,0,0,1-2.8-.93c-3.81-2.76-4.82,2.54-7.63,2.67-2.17-1.18.2-4.55-2.62-5.4-2.21-.45-4-1.73-5.85-2.89-2.93-2-8.37-.86-8.21-6.64,5-.93,9.61,1.66,14.52,1.33.43,0,1.22,0,1.27.19C193,389.52,199.82,390.42,202.53,395.33Z"/><path class="cls-91" d="M146,364.67l-1.64-1.6A93.14,93.14,0,0,1,159,350.72c1.08-.76,3.15-3.84,4.31.25C157.34,355.27,152.72,361.31,146,364.67Z"/><path class="cls-92" d="M175.42,382.12c1.38,4.76,6.9,2.66,9.35,5.65-7.27,2.37-11.06.83-14.44-5.85-1.68-3.29-4.07-1.5-6.12-.7-2.59,1-5,2.4-7.55,3.62C163,376.7,164.3,376.51,175.42,382.12Z"/><path class="cls-93" d="M272.75,253.83c-3-.32-2.3,3.08-4.06,4,0-2.38-.67-4.27-3-5.57-1.89-1.07-4.52-2.65-3.22-5.09s5.35-3.27,7-2.1c7.12,5.12,16.53,8.14,19.48,19.29C283,260.33,278.52,256,272.75,253.83Z"/><path class="cls-4" d="M275.39,291.61c-5.16-2.58-6.18-8.53-9.95-12.27-1.15-1.14-.36-2.52.89-3.34,1.59-1,3-.43,4.19.76,3.7,3.8,8.15,7,10.34,12.06C279.83,291.31,277.75,291.73,275.39,291.61Z"/><path class="cls-94" d="M261.84,252.75c-.13,1,.35,2.84-.89,2.75-3.41-.23-12.2-10.2-12.41-13.6.78-.9,1.61-1.07,2.5-.14l5.35,4.14Z"/><path class="cls-33" d="M267.37,263.36c0,1.48.08,3-1.37,4-5.65-3.65.37-7.28,0-11C267.92,258.43,267,261,267.37,263.36Z"/><path class="cls-95" d="M226.76,117.47l-4.07-2.92c-3.25-8-8.16-15.44-8.1-24.66,0-5.59-5-6.11-9-7.35-1.11-.35-3,1.2-3.62-.36-1.15-2.71-1.85-4.66-5.78-3.78-1,.22-3.15-4.67-4.92-7.44-2.49,12-.09,15.62,11,17.18.53.07.9,1.34,1.34,2l-1.54,1.49c-3.9,5.05-7.83,2.91-11.76,0-6.4-4.43-8.23-11-7.95-18.22.15-3.95-3.43-8.28-.16-11.62,6.12-6.23,12.6-12.45,20.47-16.2,3.6-1.72,7.73,2.55,11.32,4.47,7.4,3.95,13.43,9.55,16.58,17.67,1.84,13.72,5.55,26.37,19.06,33.44-.53,7.66-1.52,8.39-8.43,6-1.07-.36-2.12-.88-3,.09s-.51,2.05,0,3.06,1.87,1.93,1.26,3.57c-3,1.2-4.94-1.23-7.32-2-1.06-.82-2.23-1.52-3.27-.16-.77,1-.11,2,.59,2.84h0C229.84,116.91,229.1,118,226.76,117.47Z"/><path class="cls-57" d="M190.41,91.74c3.93,1.26,7.85,3.12,11.76,0l-2.69,5.47C194.79,98.13,193.11,94.07,190.41,91.74Z"/><path class="cls-96" d="M191.59,187.83c-.93-1.24-1.78-2.54-2.8-3.69-.72-.82-1.75-1.9-2.85-1.18-1.42.94-.79,2.32,0,3.52,3.1,4.87,7.29,9.2,8,15.3.41,3.65,2.09,7.66-2.32,10.25-5.1-.95-6.53-6.33-10.51-8.64-1.3-1.54-2.71-3-4-4.51-3.08-3.46-6.15-4.59-9.26-.35,5.4-2.63,8.81-.33,10.89,4.94.83,2.09,2,4,2.76,6.16.85,3.05,2,6.64-1.41,8.39-4,2-8.54,2.31-12.62-.59-10.29,0-20.59.17-30.88,0-6.13-.09-7.17-1.78-4.59-7.46,4.35-9.57,9.07-18.95,14-28.24,3.79-7.12,10.18-9.84,17-12.07,8-2.63,16.07-6.67,24.81-2.36l2.3,1.61c.6,3.27-3.35,2-4.05,4.1,1.1,2.37,3.49,3.67,5.15,5.62,2.48,3.44,6.79,5.18,8.66,9.19-.05,1.84-1.23,2.49-2.85,2.67C194.51,190.86,192.19,191,191.59,187.83Z"/><path class="cls-17" d="M167.38,217.43c1.33-.12,2.65-.3,4-.33,9.5-.24,9.5-.23,8.11-9.13-1.29-5.09-1.1-5.47,2.62-5.33,4,2.26,6.19,6.39,9.49,9.39a44.37,44.37,0,0,1,9.58,24.19c1,2.91,1.27,5.21-3.07,3.88-3.32-2.37-3.31-6.5-5-9.72s-3.34-5.65-7.27-5.54c-7-.25-14.07.07-21.1-.2-2.47-.07-5,0-7.43.08a4.38,4.38,0,0,1-2-.62c-7.6-2.37-15.5-2.87-24.69-2.93,3-3.24,5.5-2.23,7.68-2.42C147.95,217.94,157.78,220.23,167.38,217.43Z"/><path class="cls-97" d="M155.26,224.11q.57-.15,1.15-.25l.88.77a19.75,19.75,0,0,1,.05,13.67l-.87.79c-2.35-2.89-.73-6.41-1.5-9.55Q155.13,226.82,155.26,224.11Z"/><path class="cls-98" d="M392.85,367.21a53.47,53.47,0,0,1-27.65,3.74c2.61,2.84,10.71.11,6,7-5.77-.7-11.91,1.49-17.35-2.26-.52-.36-2,.63-3,1l-9.34-9.64c3.38-7.62,2-15.75,2.47-23.67.14-2.17-.67-4.91,1.68-6.11,2.09-1.06,3.59,1.28,5.22,2.25,3.84,2.28,7.52,4.84,11.28,7.27,1.29.83,2.8,2.19,4.17.82.74-.74.71-2.51.61-3.78-1-12.36-1-12.36,11.65-10.74,8.6,1.1,9.22,1.93,8.26,11.84l-6-4.9C382.39,351,389.61,358.23,392.85,367.21Z"/><path class="cls-99" d="M314.87,340.29c5.71,0,7.35,5,10.3,8.4,0,4.6-2.88,7.13-6.55,9.08-5.69-1.56-11.46-3-12-10.51A12,12,0,0,1,314.87,340.29Z"/><path class="cls-100" d="M307.79,347.12c.41,6.79,7.6,6.71,10.82,10.65,5.77,4.61,10.31,10.38,15,16-.75,1.16-2.47,1.47-2.71,3.09l-1.58,1c-4.22-8.66-12.09-13.48-19.6-18.71-2.84-2-5.26-1.77-7.8.6-1.73,1.61-3.49,3.73-6.4,2.23C297.52,355.3,302.19,350.83,307.79,347.12Z"/><path class="cls-101" d="M330.93,376.84c-.17-2,.87-2.87,2.71-3.09l6.9,6.3c-1.22,1.38-2.81.66-4.23.79C334.48,379.55,334.94,375.19,330.93,376.84Z"/><path class="cls-102" d="M178.44,301.22c8,2.75.67,8.34,2.18,12.45.83,2.25-1.35,3.49-3.87,2.32C175,310.81,175.27,305.85,178.44,301.22Z"/><path class="cls-103" d="M332,432.19c1.66,6.9-1.92,13.12-3,19.59-1.16,6.65,1.25,7.48,6.43,7.3,2-.07,4,.12,6.06.19,6.14,8.65,2.18,23.72-7,28.13-10,4.82-20.42,3.33-30.82,2.74l-.52.09-.52-.09c-4.09.6-7.89-.76-11.62-2s-5.77-4-6.5-7.89c-2.46-13.11-1.94-26.35-1.19-39.52.48-8.49,6.23-12.21,14.19-10.59a8.06,8.06,0,0,1,2.78,1.62c1.53,1.54,2.74,3.67,4.9,4.25,3.58,1,8.54,7.06,9.93-2.31.2-1.37,2.15-2.07,3.67-2.5C323.07,432.18,327.45,433,332,432.19Z"/><path class="cls-104" d="M298.43,432c-8.63-2.12-13.55,1.62-13.52,10.75,0,12.25-.63,24.51,1.16,36.74.64,4.36,2.92,6.87,6.49,7.37s6.61,2.44,10,3.33c-8.83,2.38-17.83.91-26.75,1.09-1.32,0-1.61-1.33-1.7-2.5,1.61-4,1.81-8.18,2.1-12.42,1.07-15.51,4-30.86,3.75-46.48,0-3-1.16-5.62-2.12-8.33-1.13-3.2-1.66-6.18,2.46-7.67,4.73,1.12,6.68,6.33,11.27,7.67a14.06,14.06,0,0,1,3.44,3.29C296.07,427.2,299.07,428.71,298.43,432Z"/><path class="cls-105" d="M281.85,414.74c-4,.22-4.65,3.19-3.24,5.64,5.63,9.78,2.2,20.14,1.63,30-.6,10.55-2.33,21.17-3.46,31.76-.27,2.53-.68,4.85-2.68,6.6l1.29-14.84c-1.2-11.08,2.74-21.66,3.14-32.68.49-13.64-4.73-25.9-6.51-38.9-.64-4.65-1.42-9.28-2-13.94-.31-2.53-.1-5,2.67-6.33a13.49,13.49,0,0,1,5.09,4.64c2.24,8.73,5.06,17.33,5.37,26.46A2.68,2.68,0,0,1,281.85,414.74Z"/><path class="cls-106" d="M245.82,459.24c3.35-9.41,2.71-19.92,8.66-28.81-1.27,19.42-.33,38.82-.8,58.23-8.32-.07-9-1-9.44-9C243.88,472.75,245.89,466.09,245.82,459.24Z"/><path class="cls-104" d="M303.6,490.14c8.76-1,17.64,1.25,26.38-2.57,10.48-4.57,15.08-12.18,12.5-23.77-.34-1.52-.72-3-1.08-4.54l3.87.07q.06,8.55.11,17.09c-2.39,4.36-1.7,9.43-3.19,15-2.74-4.23-5.62-4.65-9-1.8-4,3.37-9,.93-13.5,1.91C314.31,491.06,308.8,492.25,303.6,490.14Z"/><path class="cls-107" d="M192.89,255.4a9,9,0,0,0,1.48,2.08c1.54,1.21,4.83-2.57,5.26,1.55.32,3.15,1.47,6.84-2.41,9a1.58,1.58,0,0,0-.51.44c-1.09,1.51-4.28,2.82-2.66,4.66,2.41,2.73,4.07-.73,6.33-2.44.77,2.34,3,4.33,1.33,6.59s-4.47,2.43-7.34,1.54c-4.86-1.51-9.07-3.61-11.36-8.56-3.59-7.77-4.13-7.81-9-1.93-.4.49-1.71.23-2.59.32-4.23-.93-8.74-.93-12.37-3.81,1.87-3.93-.35-7.78-.23-11.67.08-2.57-1.08-5.24.6-7.69l2.55.31c2.18,3.74,5.23,3.39,8.54,1.81a27,27,0,0,1,6.52,1.09,11.23,11.23,0,0,1,1.89.71c1.64.8,3.64,1.69,3.24,3.77s-2.68,2-4.43,2.24c-3.4.41-7.13-.38-10.51,3,6.19,1.32,11.78-.1,17.26.69,2.2.32,2.35-1.54,2.31-3.22-.05-2.15.08-4.18,3-4.16A3.81,3.81,0,0,1,192.89,255.4Z"/><path class="cls-97" d="M156.42,223.86c2.07-1.85,4.58-.87,6.91-1.08A124.18,124.18,0,0,1,178,231.45c9,5.8,9,10.74,0,15.69a7.37,7.37,0,0,1-7,.53l-.86-.59-13.64-8,.35-.4c2-4.79,1.4-9.56-.06-14.33Z"/><path class="cls-108" d="M159.46,245.48c.82,5.2,1.69,10.39,2.44,15.59.3,2.06-.71,3.38-2.81,3.76-1.68-5.41-3.74-10.75-4.94-16.27C153.05,243.47,155.87,243.41,159.46,245.48Z"/><path class="cls-97" d="M170.33,248.33a10.08,10.08,0,0,0-1.15.58c-6.15,4.15-6.15,4.16-7.17-3.13l8.12,1.3-.06-.06q.64.33.55.8T170.33,248.33Z"/><path class="cls-109" d="M198.5,360.42c-.31,3.55.88,7.86-4.76,8.71,2.8-2.29-3.39-9.12,4.75-8.7Z"/><path class="cls-110" d="M255.15,209.25c2.74-.54,5.48,2.2,8.22,0-2.08,5.76-8.24,8.23-10.9,13.53-3.43-2.65,1.09-4.53.74-7.05-2.17.21-4.31,3.31-6.35.06a2.59,2.59,0,0,1-.34-2.64C248.38,209.63,252.64,211.38,255.15,209.25Z"/><path class="cls-111" d="M251,241.76l-2.5.14c-2,3.68-3.75,7.45-9.1,6.55-3.68-.62-7.77-.38-8.59-5.43.87.19,1.75.36,2.62.59,9.4,2.44,10.43,1.73,10.92-7.68.07-1.36,0-2.72,1.4-3.55C243.07,238,249.27,238.64,251,241.76Z"/><path class="cls-112" d="M296,362a3.73,3.73,0,0,0,1.25-.36c9.31-7.09,9.36-7.17,19,.12,3.69,2.81,7,6.07,10.61,9a7.18,7.18,0,0,1,2.52,7.13l-6.61,17.67a2.67,2.67,0,0,1-.93,2.71c-8,4.52-12.4,3.86-16.72-3.06-1.68-2.69-3.19-2.8-5.27-1-4.85,4.14-8.87,3.23-12.28-1.85a6.6,6.6,0,0,0-4.85-3.2,7.88,7.88,0,0,1-5.91-3.89c-.09-4.81,4.09-7.61,5.5-11.72C286.74,369.53,289.92,364,296,362Z"/><path class="cls-103" d="M332,394.27q0,16.11,0,32.21c-3.63,0-3.12-3-3.79-5.12-1.19-3.82-2.08-7.86-6.59-9.37-3.23-2.9-4-5.83-.1-8.8,2.26-1.72,2.61-4.59,4.1-6.78C327.25,394,328.9,392,332,394.27Z"/><path class="cls-113" d="M332,394.27c-3.24-.38-4.76,1.15-5.69,4.23-.77,2.57-1.27,5.21-4.55,6.83-4.13,2,.08,4.18,1,6.22l-.78.71c-5.46-.14-6.39-3.25-5-7.73.9-2.8,2.76-5.11,4.31-7.57l1.33-1.4c5-4,5.87-10.36,9.37-15.73C335.58,384.79,331.42,389.57,332,394.27Z"/><path class="cls-113" d="M322.84,411.55c6.62.1,5.37,6.14,6.89,9.76.72,1.72.64,3.8,2.3,5.17q0,2.85-.07,5.71c-4.51,4.6-8.92,1.66-13.34-.18-1.27-.7-2.06-1.56-1-3,2.8-1.88,6.52,2.57,8.49-.59,1.45-2.33-1.94-5.18-1.44-8.17s-2.41-5.16-2.37-8.11Z"/><path class="cls-114" d="M182.28,337.54c3.41,1.79,3.88,5.22,4.81,8.39-2.54-2.28-5.24-4.46-4.81-8.39Z"/><path class="cls-115" d="M237.67,353.83a128.86,128.86,0,0,1,1.69-31.7c1.11-6.57-1.66-6.48-6-6.36,4.9-3.36,7.8-6.69.17-10.34-.68-.33-.77-1.88-1.14-2.87l0,0c2-3.13,1.32-8.47,7.1-8.36,1.47.69,2.85,1.77,3.09,3.27,1.33,8.4,2.88,16.86-1,25.07-1.86,4.94-.91,10.09-1.11,15.15C240.22,343.18,240.3,348.73,237.67,353.83Z"/><path class="cls-116" d="M224.09,260.57a45.46,45.46,0,0,1-1.13-5.86c-.2-3.13,1.6-4.33,4.52-3a2.82,2.82,0,0,0,3.08-.53c3.93-2.86,6-1.6,6.22,2.92.08,1.46.24,2.05,1.75,1.89,5.73-.62,6.82,4.34,9.72,7.47-3.62,2.41-5.1-1.6-7.68-1.66-1.66,0-3.71-2.25-4.86-.27s.68,3.77,2.2,5.13,3.51,2.76,5.17,4.25c1,.94.32,2.05-.1,3.07-4-.28-8.21,1.26-12-1.33.94-1.48,2.89-.85,4.31-2.1-3.43-2.83-5.9-6.64-10.2-8.31Z"/><path class="cls-117" d="M225.13,262.21c7.3-1,8.32,6.51,12.79,10.09l-6.9.32C227.78,269.88,226.82,265.84,225.13,262.21Z"/><path class="cls-32" d="M207.9,284.85c2.92-3.1,7.67-2.66,10.71-5.53C217.35,285.64,212.34,284.68,207.9,284.85Z"/><path class="cls-4" d="M241.56,322.5c0-7-.1-14.09.06-21.13.07-3.2-.74-5.62-3.87-6.89-1.32.43-1.63-.25-1.53-1.38-.24-2-5.82-5.23,1.28-5.51,2.22.47,2.44,3,4.17,4,2,4.62,8.92,5,9.54,10.87-.47,3.76,1.31,5.42,5,5.44,1.84,0,3,.84,2.83,2.88-.14,1.68-1.32,2-2.72,2.4-2.18.63-6.55-1.63-6,2.82.5,3.82,4.7,2.28,7.41,2.68,1.31,5.48-2.3,4-5,3.36-1.84-.43-3.6-1.25-4.19,1.42-.48,2.21,1,3.37,2.77,4,3.54,1.15,7.55.76,11,3.5-3.26,2.51-6.24.29-9.23,0-2.72-.23-6.75-1.35-6.84,2.94-.08,3.75,3.75,1.82,5.86,2.26s4.56-.72,6.16,1.78c-2.27,1.94-4.66,1.95-7.44,1.23-2.06-.53-4.67-1-5.17,2.41-2.73,1.5-4.08.88-4-2.43C241.69,333.58,241.59,328,241.56,322.5Z"/><path class="cls-27" d="M236.22,293.09l1.53,1.38c-1.79,2.69-2.67,6-5.4,8C232,298.71,232.53,295.25,236.22,293.09Z"/><path class="cls-118" d="M348,214.27l-5.06.37c-.24-1.29-2.43-3,.09-3.76S346.89,212.27,348,214.27Z"/><path class="cls-119" d="M321.22,187.72c-.06-2.64-.24-5.72,3.26-5.94,2.37-.15,3.72,1.85,3.5,4.45C325.73,186.74,323.83,188.84,321.22,187.72Z"/><path class="cls-120" d="M226.76,117.47l2.75-2.73c.93,1.67,6.92,2,1.4,5.38A6.87,6.87,0,0,1,226.76,117.47Z"/><path class="cls-120" d="M229.51,114.74c-1.88-1-3.84-2.62-1.9-4.57s3.51.06,4.59,1.88A2.49,2.49,0,0,0,229.51,114.74Z"/><path class="cls-121" d="M296,362l-12.42,12c-2,1.38-3.91,1.74-5.84,0,4.35-8.15,11.51-14.06,17-21.31,1.72-2.27,4.47-3.82,5-7,2.7-2.13,1.7-5.88,3.65-8.34,2.13-1.11,2.65-3.56,4.23-5.11,2-2,4-5,7.28-2.64,2.74,2,2.46,5,.94,7.89-.31.59-.75,1.11-1.12,1.67a1.21,1.21,0,0,0,.17,1.16l-7.08,6.83Z"/><path class="cls-122" d="M314.69,339.13c0-.22,0-.45,0-.67-.38-2.82,2.81-6.89-1.26-8.2-2.83-.91-4.47,2.89-6,5.26a3.91,3.91,0,0,1-4,1.8c.19-.87.32-1.76.57-2.61,3.53-12.06,3.54-12.06-7-17.44,4.4-.77,7.59,1.69,10.83,4,2,.58,4.39.21,5.45,2.66,4.36,1.84,5.73,8.95,12.27,6.93C320.49,331.77,319.63,338.13,314.69,339.13Z"/><path class="cls-123" d="M340.15,331c-1.78,4.86-4.64,7.47-6.68,10.62-2.65,4.08-4.67,4.76-7.66,0-4.11-6.52-4.09-6.94,3.79-8.3C332.84,332.77,336,331.92,340.15,331Z"/><path class="cls-124" d="M342.87,326.57c1.18-3.63.33-8,4.1-10.66.94,4.31,4.69,3.44,7.5,3.76,3.45.39,7,.09,10.59,1.14C358.13,324.94,350.56,326,342.87,326.57Z"/><path class="cls-125" d="M362,332.16c-.66,2.36,1,5-1.48,5.9-1.89.73-2.94-1.55-4.28-2.61-.35-.28-.67-.59-1-.9-1.9-1.84-6.31-2.54-4.67-6.09,1.41-3.07,5.74-2.4,8.53-2.48C364.09,325.86,360.26,330.63,362,332.16Z"/><path class="cls-126" d="M370.51,324.08c1.86.15,4.29,0,4.19,2.79-.08,2.17-2.15,2.5-4,2.49-2,0-4.36-.11-4.29-2.81C366.49,324.32,368.6,324.17,370.51,324.08Z"/><path class="cls-127" d="M378.43,325.56c4.33-2,6.91-1.92,10.33-.52C385.58,327.49,382.92,326.88,378.43,325.56Z"/><path class="cls-128" d="M295.45,316.43c-2-1.54-6.24-1.58-3.85-5.94,5.48-.14,9.75-4.48,15.4-4.28,2,.07,2-2.06,2-3.65,0-2.69,0-5.39,0-8.08,3.88-1.13,5,3.7,8.26,3.86,1.44,11.38-3,15.8-14.26,14.52C300.07,312.51,295.75,310.65,295.45,316.43Z"/><path class="cls-128" d="M313.25,324l-5.45-2.66c1.87-.43.66-4.45,3.69-3.32S313.66,321.67,313.25,324Z"/><path class="cls-129" d="M176.91,245.85c1.34-2.28,4.62-1.43,5.85-5.21,2.18-6.71-5.21-4.89-5.9-8.43,2.63-2.26,5-.45,7.45.47,3.07,1.17,4.3.43,3.41-2.94-.6-2.28-2.18-4.58,0-6.88,5.28.9,6.24,5.56,8.07,9.4,1,2.17,1.76,4.49,2.63,6.74,1.35,2.06,2.69,4.11,1.46,6.73.26,3.06-1.24,4.31-4.18,4.09-4.38-3.21-8.92-5.14-14.46-2.77A3.86,3.86,0,0,1,176.91,245.85Z"/><path class="cls-130" d="M176.91,245.85c2.18-.23,4.7.17,6.48-.8,6.23-3.4,9.77-.89,12.28,4.76-1.05,1.8,2.64,6-2.78,5.59l-2.79-2.73c-4.23-1.86-9-1.14-13.27-2.79-2.23-.28-4.52-.27-6.52-1.55a7,7,0,0,1-.26-1.31C172.39,246.9,174.9,247.85,176.91,245.85Z"/><path class="cls-131" d="M199.85,245.71a11.56,11.56,0,0,1-1.46-6.73c3.34,1.49,2.49-1.2,2.76-2.77a50.13,50.13,0,0,1,4.16,16.12c-.57,1.63,1.75,3.24-.1,5.13C202.21,254,202,249.4,199.85,245.71Z"/><path class="cls-76" d="M190.21,179.73l-7.65-7c1.74-3.4,5.79-1.06,7.45-3.75,3.77,7.16,11.13,9.22,17.3,13.2,2.1,1.35,3.9,5.46,7.25,7-4,.11-.37,3.82-2.61,5.12l-8.22-5.13C199.87,185.06,196.39,180.46,190.21,179.73Z"/><path class="cls-132" d="M224.06,172.78c3,.14,5.52.7,5.1,3.64-.5,3.49-3.66,4.23-6.6,4.35-2.23.09-2.45-1.18-1.4-3.09S219,171.21,224.06,172.78Z"/><path class="cls-133" d="M217.89,172.49c-5,5.41-8.68,10-13.45,3.91-1.38-1.78-4.37-4.12-2.33-6C207.55,165.56,211.89,170.79,217.89,172.49Z"/><path class="cls-134" d="M191.59,187.83l5.32,2.68c2.78,3.09,7.17,4.73,8.36,9.26-1.44,2.43-1.44,2.43-5.56.14l-8.89-9.8C189.74,188.9,189.14,187.85,191.59,187.83Z"/><path class="cls-135" d="M190.21,179.73c2.26-3,4.74-1,6.28.39,2.83,2.58,7.1,4.22,7.23,9-1.37-.28-2.33-1.82-4-1.3A28.59,28.59,0,0,1,190.21,179.73Z"/><path class="cls-136" d="M199.71,199.91c1.84-.65,3.77,2.51,5.56-.14,1.54,1.28,1.63,3,1.62,5.26C203.14,205,201.49,202.37,199.71,199.91Z"/><path class="cls-137" d="M247.1,213.35l-.25,2.44c-4.25,1.56-2.75,7.2-6.12,9.21-3.86-.75,1-7-4.52-6.34-3.22-.71-3.72-2-1-4.23,1.87-1.55,3.55-3.32,5.32-5C244.78,207.24,247.26,208.07,247.1,213.35Z"/><path class="cls-138" d="M247.1,213.35c-.84-3.59-3.49-4.12-6.59-3.91,3.27-5.69,8.3-7.66,14.62-6.88,1.46,1.77-.4,2.25-1.24,3-2.35,2.21-.52,2.91,1.26,3.65,1,1.87.7,3-1.71,2.73A9.37,9.37,0,0,0,247.1,213.35Z"/><path class="cls-139" d="M277.75,373.93l5.84,0c-1.05,4.23-4.2,7.22-6.41,10.76a.9.9,0,0,1-.6,1.33c-2.55-.14-3.75-1.57-3.89-4C274.1,379.16,274.51,375.66,277.75,373.93Z"/><path class="cls-140" d="M260.46,297.2c-.48,3.94-3.65,5.29-6.88,2.69-1.52-1.23-2.47-3.14-3.73-4.71-5.12-6.38-5.12-6.37,2.72-7.77C256,290,256.54,295,260.46,297.2Z"/><path class="cls-141" d="M170.33,381.93c3.7,4.69,8.71,6.15,14.44,5.85l5.2,2.51c1.28.69,1.11,1.56.29,2.5L189,395.56c-4.94,1.65-9.94,3.42-13.56-2.34-.77-1.23-1.49-1.12-2.72-.82-6.12,1.53-10.27-.28-10.4-4.85C162.15,382.1,166.46,382.12,170.33,381.93Z"/><path class="cls-142" d="M190.27,392.78l-.29-2.5c2.72.89,1.18,3.54,2.23,5.37,2.33-1.38,4.41-5.14,7.53-1.27-4.16-.23-5.27,4.19-9.06,5.94Z"/><path class="cls-143" d="M182.09,202.64c-3.66.41-1.94,3.45-2.62,5.33-.18-.13-.43-.22-.53-.4-5.24-9.45-5.24-9.45-15.58-5.69,2.25-4,4.65-8.35,8.21-8.24C176.5,193.77,179.56,198.43,182.09,202.64Z"/><path class="cls-144" d="M187.69,222.85c-.78,4.44,5.67,9,1.49,12.43-3.32,2.73-7.26-3.44-11.66-3.08-.22,0-.45,0-.67,0-4.48-3.19-10.61-4-13.53-9.42Z"/><path class="cls-145" d="M156.78,224.37c3,4.77,4.79,9.54.06,14.33Q156.81,231.53,156.78,224.37Z"/><path class="cls-146" d="M317.29,429.25l1.31,2.76c-.84,1.75-4.47,1.82-2.84,5.13,2.51,5.1-.71,5.05-3.82,3.52-4.24-2.09-9.88-2.08-12.17-7.42,1.39-1.6,3.62-1.1,5.25-2.11.44-.36.87-.72,1.27-1.11,3-3.94,6.54-3.85,10.42-1.49Z"/><path class="cls-147" d="M306.29,431.87c-1.73,2.57-4.31,1.09-6.51,1.37L298.43,432c-1-2.44-4-3.53-4.26-6.48C300,424.19,302.29,429.66,306.29,431.87Z"/><path class="cls-148" d="M306.29,431.87c-5.61.83-7.19-6-12.13-6.4l-2.78-2.77c-1.84-1.91-4.24-3.11-6.18-4.86-1.18-1.07-3.17-2.13-1.16-4.18,11.81-3.31,16.8-2.15,21.48,5-1.36,4.51,3.8,8.65.79,13.27Z"/><path class="cls-147" d="M283.4,414.65c2,3.31,6.92,3.79,8,8.05-4.41-1.19-7.85-3.52-9.54-8l.51-.42C282.83,414,283.18,414.13,283.4,414.65Z"/><path class="cls-149" d="M283.4,414.65a6.19,6.19,0,0,0-1-.33l-5.77-28.26.6-1.33c1.68,1,2.87,3,5.2,2.7,3.47-.51,5.14,1.29,6.73,4.17,2.37,4.29,5.33,5.58,9.48,1.26s6.37-3.57,8,1.83c1.73,5.78,7.32,6.64,14.84,2.27-.73,2.27-1.07,4.8-2.29,6.77-2.76,4.47-1.14,6.86,3.21,8.4,6.42,3.9,3.27,11.53,6.45,16.84,1.13,1.89-1.54,3.32-3.91,2.65-2.55-.71-5.05-1.57-7.57-2.37l.13-.14c-4.38-2.73-9.25-4.82-12.19-9.41C299.56,411.07,291.13,414.38,283.4,414.65Z"/><path class="cls-150" d="M176.84,249.88c4.43.92,9.85-2.92,13.27,2.79-4,.61-1.15,3.06-1.1,4.59.11,3.4-.43,4.56-4.57,4-6.36-.81-12.9-.21-19.8-.21,2.13-10.73,10.89-5.61,16.41-7.78C181.09,250.37,177.61,251.75,176.84,249.88Z"/><path class="cls-147" d="M305.23,419.7c4.7,2.31,9.31,4.74,12.19,9.41-4-.2-8.45-2.3-11.1,2.79a15.55,15.55,0,0,0-2.62-8.69C302.23,421.05,302.84,420.05,305.23,419.7Z"/><path class="cls-3" d="M206,171c1,3,5,3,5,3s3-2,0-3A6.93,6.93,0,0,0,206,171Z"/><path id="path6315" class="cls-151" d="M202,51c-1.06-.44-2.73,2.1-3.74,4.73h0c-.88,2.31-1.24,4.72-.2,5.15,4,1.67,10,0,10.57-1.34a3.08,3.08,0,0,0-.22-1.78h0l-.05-.15A12.31,12.31,0,0,0,202,51Z"/></svg>
